STARTFONT 2.1
FONT -FontForge-AnonymousProLHQwattash-Book-R-Normal--16-120-100-100-P-80-ISO10646-1
SIZE 12 100 100
FONTBOUNDINGBOX 11 18 -2 -4
COMMENT "Generated by fontforge, http://fontforge.sourceforge.net"
COMMENT "Copyright (c) Mark Simonson 2009-2010. All rights reserved."
STARTPROPERTIES 40
FOUNDRY "FontForge"
FAMILY_NAME "AnonymousProLHQwattash"
WEIGHT_NAME "Book"
SLANT "R"
SETWIDTH_NAME "Normal"
ADD_STYLE_NAME ""
PIXEL_SIZE 16
POINT_SIZE 120
RESOLUTION_X 100
RESOLUTION_Y 100
SPACING "P"
AVERAGE_WIDTH 80
CHARSET_REGISTRY "ISO10646"
CHARSET_ENCODING "1"
FONTNAME_REGISTRY ""
CHARSET_COLLECTIONS "ASCII ISOLatin1Encoding ISO8859-2 ISO8859-5 ISO8859-7 ISO8859-9 ISO8859-4 ISO10646-1"
FONT_NAME "AnonymousProLHQwattash"
FACE_NAME "Anonymous Pro qwattash patch with adjusted line height"
COPYRIGHT "Copyright (c) Mark Simonson 2009-2010. All rights reserved."
FONT_VERSION "1.002"
FONT_ASCENT 12
FONT_DESCENT 4
UNDERLINE_POSITION -2
UNDERLINE_THICKNESS 1
X_HEIGHT 6
CAP_HEIGHT 9
DEFAULT_CHAR 1
RAW_ASCENT 779
RAW_DESCENT 220
NORM_SPACE 8
RELATIVE_WEIGHT 40
RELATIVE_SETWIDTH 50
SUPERSCRIPT_X 0
SUPERSCRIPT_Y 6
SUPERSCRIPT_SIZE 9
SUBSCRIPT_X 0
SUBSCRIPT_Y 2
SUBSCRIPT_SIZE 9
AVG_LOWERCASE_WIDTH 80
AVG_UPPERCASE_WIDTH 80
ENDPROPERTIES
CHARS 630
STARTCHAR .null.dup1
ENCODING 0
SWIDTH 520 0
DWIDTH 8 0
BBX 1 1 0 0
BITMAP
00
ENDCHAR
STARTCHAR nonmarkingreturn
ENCODING 13
SWIDTH 520 0
DWIDTH 8 0
BBX 1 1 0 0
BITMAP
00
ENDCHAR
STARTCHAR space
ENCODING 32
SWIDTH 520 0
DWIDTH 8 0
BBX 1 1 0 0
BITMAP
00
ENDCHAR
STARTCHAR exclam
ENCODING 33
SWIDTH 520 0
DWIDTH 8 0
BBX 1 10 3 0
BITMAP
80
80
80
80
80
80
80
00
00
80
ENDCHAR
STARTCHAR quotedbl
ENCODING 34
SWIDTH 520 0
DWIDTH 8 0
BBX 5 4 1 6
BITMAP
D8
50
50
90
ENDCHAR
STARTCHAR numbersign
ENCODING 35
SWIDTH 520 0
DWIDTH 8 0
BBX 7 7 0 0
BITMAP
28
28
FE
28
FE
28
28
ENDCHAR
STARTCHAR dollar
ENCODING 36
SWIDTH 520 0
DWIDTH 9 0
BBX 7 12 0 -1
BITMAP
10
38
D4
92
90
70
1C
12
92
52
3C
10
ENDCHAR
STARTCHAR percent
ENCODING 37
SWIDTH 520 0
DWIDTH 8 0
BBX 7 10 0 0
BITMAP
62
94
94
68
10
10
26
4A
4A
86
ENDCHAR
STARTCHAR ampersand
ENCODING 38
SWIDTH 520 0
DWIDTH 8 0
BBX 7 10 0 0
BITMAP
70
88
88
98
60
E2
92
8C
8C
72
ENDCHAR
STARTCHAR quotesingle
ENCODING 39
SWIDTH 520 0
DWIDTH 8 0
BBX 1 4 3 6
BITMAP
80
80
80
80
ENDCHAR
STARTCHAR parenleft
ENCODING 40
SWIDTH 520 0
DWIDTH 8 0
BBX 4 14 1 -3
BITMAP
10
20
40
40
80
80
80
80
80
80
40
40
20
10
ENDCHAR
STARTCHAR parenright
ENCODING 41
SWIDTH 520 0
DWIDTH 8 0
BBX 4 14 2 -3
BITMAP
80
40
20
20
10
10
10
10
10
10
20
20
40
80
ENDCHAR
STARTCHAR asterisk
ENCODING 42
SWIDTH 520 0
DWIDTH 8 0
BBX 7 7 0 0
BITMAP
10
94
5E
30
7C
96
10
ENDCHAR
STARTCHAR plus
ENCODING 43
SWIDTH 520 0
DWIDTH 8 0
BBX 7 7 0 0
BITMAP
10
10
10
FE
10
10
10
ENDCHAR
STARTCHAR comma
ENCODING 44
SWIDTH 520 0
DWIDTH 8 0
BBX 3 4 2 -3
BITMAP
60
40
80
80
ENDCHAR
STARTCHAR hyphen
ENCODING 45
SWIDTH 520 0
DWIDTH 8 0
BBX 7 1 0 3
BITMAP
FE
ENDCHAR
STARTCHAR period
ENCODING 46
SWIDTH 520 0
DWIDTH 8 0
BBX 1 1 3 0
BITMAP
80
ENDCHAR
STARTCHAR slash
ENCODING 47
SWIDTH 520 0
DWIDTH 8 0
BBX 7 12 0 -2
BITMAP
02
04
04
08
08
10
10
20
20
40
40
80
ENDCHAR
STARTCHAR zero
ENCODING 48
SWIDTH 520 0
DWIDTH 8 0
BBX 7 10 0 0
BITMAP
38
44
82
8E
92
A2
A2
C2
44
38
ENDCHAR
STARTCHAR one
ENCODING 49
SWIDTH 520 0
DWIDTH 8 0
BBX 6 10 0 0
BITMAP
10
10
30
D0
10
10
10
10
10
7C
ENDCHAR
STARTCHAR two
ENCODING 50
SWIDTH 520 0
DWIDTH 9 0
BBX 7 10 0 0
BITMAP
3C
42
82
82
04
08
10
22
42
7E
ENDCHAR
STARTCHAR three
ENCODING 51
SWIDTH 520 0
DWIDTH 9 0
BBX 7 10 0 0
BITMAP
3C
C2
82
02
0C
06
02
82
C6
3C
ENDCHAR
STARTCHAR four
ENCODING 52
SWIDTH 520 0
DWIDTH 8 0
BBX 7 10 0 0
BITMAP
18
18
28
48
48
88
FE
08
08
3E
ENDCHAR
STARTCHAR five
ENCODING 53
SWIDTH 520 0
DWIDTH 8 0
BBX 7 10 0 0
BITMAP
FC
80
80
B8
C4
02
02
82
46
3C
ENDCHAR
STARTCHAR six
ENCODING 54
SWIDTH 520 0
DWIDTH 8 0
BBX 7 10 0 0
BITMAP
3C
44
80
B8
C4
82
82
82
44
38
ENDCHAR
STARTCHAR seven
ENCODING 55
SWIDTH 520 0
DWIDTH 8 0
BBX 7 10 0 0
BITMAP
FE
84
84
08
08
10
10
10
10
10
ENDCHAR
STARTCHAR eight
ENCODING 56
SWIDTH 520 0
DWIDTH 8 0
BBX 8 10 0 0
BITMAP
7C
82
82
C2
3C
43
81
81
C3
3E
ENDCHAR
STARTCHAR nine
ENCODING 57
SWIDTH 520 0
DWIDTH 8 0
BBX 7 10 0 0
BITMAP
38
44
82
82
82
46
3A
04
84
78
ENDCHAR
STARTCHAR colon
ENCODING 58
SWIDTH 520 0
DWIDTH 8 0
BBX 1 7 3 0
BITMAP
80
00
00
00
00
00
80
ENDCHAR
STARTCHAR semicolon
ENCODING 59
SWIDTH 520 0
DWIDTH 8 0
BBX 3 10 2 -3
BITMAP
40
00
00
00
00
00
60
40
80
80
ENDCHAR
STARTCHAR less
ENCODING 60
SWIDTH 520 0
DWIDTH 8 0
BBX 5 7 1 0
BITMAP
08
10
20
C0
20
10
08
ENDCHAR
STARTCHAR equal
ENCODING 61
SWIDTH 520 0
DWIDTH 8 0
BBX 7 5 0 1
BITMAP
FE
00
00
00
FE
ENDCHAR
STARTCHAR greater
ENCODING 62
SWIDTH 520 0
DWIDTH 8 0
BBX 4 7 1 0
BITMAP
80
40
20
10
20
40
80
ENDCHAR
STARTCHAR question
ENCODING 63
SWIDTH 520 0
DWIDTH 9 0
BBX 5 10 2 0
BITMAP
70
88
88
08
10
20
40
00
00
40
ENDCHAR
STARTCHAR at
ENCODING 64
SWIDTH 520 0
DWIDTH 8 0
BBX 7 10 0 0
BITMAP
38
44
BA
CA
CA
CA
CA
BC
44
38
ENDCHAR
STARTCHAR A
ENCODING 65
SWIDTH 520 0
DWIDTH 8 0
BBX 7 10 0 0
BITMAP
10
28
28
28
44
44
7C
82
82
82
ENDCHAR
STARTCHAR B
ENCODING 66
SWIDTH 520 0
DWIDTH 9 0
BBX 7 10 0 0
BITMAP
FC
82
82
82
FC
86
82
82
86
FC
ENDCHAR
STARTCHAR C
ENCODING 67
SWIDTH 520 0
DWIDTH 8 0
BBX 7 10 0 0
BITMAP
3A
46
82
80
80
80
80
82
44
38
ENDCHAR
STARTCHAR D
ENCODING 68
SWIDTH 520 0
DWIDTH 8 0
BBX 7 10 0 0
BITMAP
F8
84
82
82
82
82
82
82
84
F8
ENDCHAR
STARTCHAR E
ENCODING 69
SWIDTH 520 0
DWIDTH 8 0
BBX 6 10 0 0
BITMAP
FC
80
80
80
80
F8
80
80
80
FC
ENDCHAR
STARTCHAR F
ENCODING 70
SWIDTH 520 0
DWIDTH 8 0
BBX 6 10 0 0
BITMAP
FC
80
80
80
80
F8
80
80
80
80
ENDCHAR
STARTCHAR G
ENCODING 71
SWIDTH 520 0
DWIDTH 8 0
BBX 7 10 0 0
BITMAP
3A
46
82
80
80
8E
82
82
44
38
ENDCHAR
STARTCHAR H
ENCODING 72
SWIDTH 520 0
DWIDTH 8 0
BBX 6 10 0 0
BITMAP
84
84
84
84
84
FC
84
84
84
84
ENDCHAR
STARTCHAR I
ENCODING 73
SWIDTH 520 0
DWIDTH 8 0
BBX 5 10 1 0
BITMAP
F8
20
20
20
20
20
20
20
20
F8
ENDCHAR
STARTCHAR J
ENCODING 74
SWIDTH 520 0
DWIDTH 8 0
BBX 7 10 0 0
BITMAP
02
02
02
02
02
02
02
82
46
3C
ENDCHAR
STARTCHAR K
ENCODING 75
SWIDTH 520 0
DWIDTH 8 0
BBX 7 10 0 0
BITMAP
86
88
90
A0
E0
E0
90
88
88
86
ENDCHAR
STARTCHAR L
ENCODING 76
SWIDTH 520 0
DWIDTH 8 0
BBX 6 10 0 0
BITMAP
80
80
80
80
80
80
80
80
80
FC
ENDCHAR
STARTCHAR M
ENCODING 77
SWIDTH 520 0
DWIDTH 8 0
BBX 6 10 0 0
BITMAP
84
CC
CC
D4
B4
B4
A4
84
84
84
ENDCHAR
STARTCHAR N
ENCODING 78
SWIDTH 520 0
DWIDTH 8 0
BBX 6 10 0 0
BITMAP
C4
C4
E4
A4
A4
94
94
8C
8C
84
ENDCHAR
STARTCHAR O
ENCODING 79
SWIDTH 520 0
DWIDTH 8 0
BBX 7 10 0 0
BITMAP
38
44
82
82
82
82
82
82
44
38
ENDCHAR
STARTCHAR P
ENCODING 80
SWIDTH 520 0
DWIDTH 8 0
BBX 7 10 0 0
BITMAP
FC
82
82
82
82
FC
80
80
80
80
ENDCHAR
STARTCHAR Q
ENCODING 81
SWIDTH 520 0
DWIDTH 8 0
BBX 7 13 0 -3
BITMAP
38
44
82
82
82
82
82
82
44
38
10
10
0E
ENDCHAR
STARTCHAR R
ENCODING 82
SWIDTH 520 0
DWIDTH 8 0
BBX 7 10 0 0
BITMAP
FC
82
82
82
82
FC
98
88
8C
86
ENDCHAR
STARTCHAR S
ENCODING 83
SWIDTH 520 0
DWIDTH 9 0
BBX 7 10 0 0
BITMAP
7A
86
82
C0
38
0C
06
82
C6
BC
ENDCHAR
STARTCHAR T
ENCODING 84
SWIDTH 520 0
DWIDTH 8 0
BBX 7 10 0 0
BITMAP
FE
92
92
10
10
10
10
10
10
7C
ENDCHAR
STARTCHAR U
ENCODING 85
SWIDTH 520 0
DWIDTH 8 0
BBX 6 10 0 0
BITMAP
84
84
84
84
84
84
84
84
CC
78
ENDCHAR
STARTCHAR V
ENCODING 86
SWIDTH 520 0
DWIDTH 8 0
BBX 7 10 0 0
BITMAP
82
82
82
44
44
44
28
28
28
10
ENDCHAR
STARTCHAR W
ENCODING 87
SWIDTH 520 0
DWIDTH 8 0
BBX 7 10 0 0
BITMAP
82
82
82
92
92
F4
6C
6C
6C
6C
ENDCHAR
STARTCHAR X
ENCODING 88
SWIDTH 520 0
DWIDTH 8 0
BBX 7 10 0 0
BITMAP
EE
44
28
28
10
10
28
28
44
EE
ENDCHAR
STARTCHAR Y
ENCODING 89
SWIDTH 520 0
DWIDTH 8 0
BBX 7 10 0 0
BITMAP
EE
44
6C
28
28
10
10
10
10
7C
ENDCHAR
STARTCHAR Z
ENCODING 90
SWIDTH 520 0
DWIDTH 8 0
BBX 6 10 0 0
BITMAP
FC
88
88
10
10
20
20
44
84
FC
ENDCHAR
STARTCHAR bracketleft
ENCODING 91
SWIDTH 520 0
DWIDTH 8 0
BBX 3 14 3 -3
BITMAP
E0
80
80
80
80
80
80
80
80
80
80
80
80
E0
ENDCHAR
STARTCHAR backslash
ENCODING 92
SWIDTH 520 0
DWIDTH 8 0
BBX 6 12 1 -2
BITMAP
80
80
40
40
20
20
10
10
08
08
04
04
ENDCHAR
STARTCHAR bracketright
ENCODING 93
SWIDTH 520 0
DWIDTH 8 0
BBX 3 14 1 -3
BITMAP
E0
20
20
20
20
20
20
20
20
20
20
20
20
E0
ENDCHAR
STARTCHAR asciicircum
ENCODING 94
SWIDTH 520 0
DWIDTH 8 0
BBX 7 6 0 4
BITMAP
10
28
28
44
44
82
ENDCHAR
STARTCHAR underscore
ENCODING 95
SWIDTH 520 0
DWIDTH 8 0
BBX 7 1 0 -1
BITMAP
FE
ENDCHAR
STARTCHAR grave
ENCODING 96
SWIDTH 520 0
DWIDTH 8 0
BBX 3 2 2 8
BITMAP
80
60
ENDCHAR
STARTCHAR a
ENCODING 97
SWIDTH 520 0
DWIDTH 8 0
BBX 6 7 0 0
BITMAP
78
84
04
7C
84
8C
74
ENDCHAR
STARTCHAR b
ENCODING 98
SWIDTH 520 0
DWIDTH 8 0
BBX 7 10 0 0
BITMAP
80
80
80
B8
C4
82
82
82
84
F8
ENDCHAR
STARTCHAR c
ENCODING 99
SWIDTH 520 0
DWIDTH 8 0
BBX 6 7 0 0
BITMAP
7C
8C
84
80
80
44
78
ENDCHAR
STARTCHAR d
ENCODING 100
SWIDTH 520 0
DWIDTH 8 0
BBX 6 10 0 0
BITMAP
0C
04
04
7C
84
84
84
84
84
7C
ENDCHAR
STARTCHAR e
ENCODING 101
SWIDTH 520 0
DWIDTH 8 0
BBX 7 7 0 0
BITMAP
38
44
82
FE
80
46
3C
ENDCHAR
STARTCHAR f
ENCODING 102
SWIDTH 520 0
DWIDTH 8 0
BBX 6 10 1 0
BITMAP
1C
20
20
FC
20
20
20
20
20
F8
ENDCHAR
STARTCHAR g
ENCODING 103
SWIDTH 520 0
DWIDTH 8 0
BBX 6 10 0 -3
BITMAP
7C
84
84
84
84
84
7C
04
CC
78
ENDCHAR
STARTCHAR h
ENCODING 104
SWIDTH 520 0
DWIDTH 8 0
BBX 6 10 0 0
BITMAP
80
80
80
B8
C4
84
84
84
84
84
ENDCHAR
STARTCHAR i
ENCODING 105
SWIDTH 520 0
DWIDTH 8 0
BBX 5 10 1 0
BITMAP
20
00
00
E0
20
20
20
20
20
F8
ENDCHAR
STARTCHAR j
ENCODING 106
SWIDTH 520 0
DWIDTH 8 0
BBX 5 13 0 -3
BITMAP
08
00
00
38
08
08
08
08
08
08
08
88
70
ENDCHAR
STARTCHAR k
ENCODING 107
SWIDTH 520 0
DWIDTH 8 0
BBX 7 10 0 0
BITMAP
80
80
80
8C
98
B0
E0
D0
88
86
ENDCHAR
STARTCHAR l
ENCODING 108
SWIDTH 520 0
DWIDTH 8 0
BBX 5 10 1 0
BITMAP
E0
20
20
20
20
20
20
20
20
F8
ENDCHAR
STARTCHAR m
ENCODING 109
SWIDTH 520 0
DWIDTH 8 0
BBX 7 7 0 0
BITMAP
FE
92
92
92
92
92
92
ENDCHAR
STARTCHAR n
ENCODING 110
SWIDTH 520 0
DWIDTH 8 0
BBX 6 7 0 0
BITMAP
B8
C4
84
84
84
84
84
ENDCHAR
STARTCHAR o
ENCODING 111
SWIDTH 520 0
DWIDTH 8 0
BBX 7 7 0 0
BITMAP
38
44
82
82
82
44
38
ENDCHAR
STARTCHAR p
ENCODING 112
SWIDTH 520 0
DWIDTH 8 0
BBX 7 10 0 -3
BITMAP
B8
C4
82
82
82
84
F8
80
80
80
ENDCHAR
STARTCHAR q
ENCODING 113
SWIDTH 520 0
DWIDTH 8 0
BBX 6 10 0 -3
BITMAP
7C
84
84
84
84
84
7C
04
04
04
ENDCHAR
STARTCHAR r
ENCODING 114
SWIDTH 520 0
DWIDTH 8 0
BBX 7 7 0 0
BITMAP
EE
30
20
20
20
20
F8
ENDCHAR
STARTCHAR s
ENCODING 115
SWIDTH 520 0
DWIDTH 8 0
BBX 7 7 -1 0
BITMAP
3C
42
40
3C
02
42
FC
ENDCHAR
STARTCHAR t
ENCODING 116
SWIDTH 520 0
DWIDTH 8 0
BBX 7 10 0 0
BITMAP
20
20
20
FC
20
20
20
22
22
1C
ENDCHAR
STARTCHAR u
ENCODING 117
SWIDTH 520 0
DWIDTH 8 0
BBX 6 7 0 0
BITMAP
84
84
84
84
84
8C
74
ENDCHAR
STARTCHAR v
ENCODING 118
SWIDTH 520 0
DWIDTH 8 0
BBX 7 7 0 0
BITMAP
82
C6
44
44
28
28
10
ENDCHAR
STARTCHAR w
ENCODING 119
SWIDTH 520 0
DWIDTH 8 0
BBX 7 7 0 0
BITMAP
92
92
B2
6C
6C
6C
6C
ENDCHAR
STARTCHAR x
ENCODING 120
SWIDTH 520 0
DWIDTH 8 0
BBX 7 7 0 0
BITMAP
EE
6C
28
10
28
4C
EE
ENDCHAR
STARTCHAR y
ENCODING 121
SWIDTH 520 0
DWIDTH 8 0
BBX 7 10 0 -3
BITMAP
82
C6
44
44
28
28
10
10
30
E0
ENDCHAR
STARTCHAR z
ENCODING 122
SWIDTH 520 0
DWIDTH 8 0
BBX 6 7 0 0
BITMAP
FC
88
90
20
64
44
FC
ENDCHAR
STARTCHAR braceleft
ENCODING 123
SWIDTH 520 0
DWIDTH 8 0
BBX 4 14 2 -3
BITMAP
30
40
40
40
40
40
80
40
40
40
40
40
40
30
ENDCHAR
STARTCHAR bar
ENCODING 124
SWIDTH 520 0
DWIDTH 8 0
BBX 1 12 3 -1
BITMAP
80
80
80
80
80
80
80
80
80
80
80
80
ENDCHAR
STARTCHAR braceright
ENCODING 125
SWIDTH 520 0
DWIDTH 8 0
BBX 4 14 1 -3
BITMAP
C0
20
20
20
20
20
10
20
20
20
20
20
20
C0
ENDCHAR
STARTCHAR asciitilde
ENCODING 126
SWIDTH 520 0
DWIDTH 8 0
BBX 7 3 0 2
BITMAP
62
92
8C
ENDCHAR
STARTCHAR uni00A0
ENCODING 160
SWIDTH 520 0
DWIDTH 8 0
BBX 1 1 0 0
BITMAP
00
ENDCHAR
STARTCHAR exclamdown
ENCODING 161
SWIDTH 520 0
DWIDTH 8 0
BBX 1 10 4 0
BITMAP
80
00
00
80
80
80
80
80
80
80
ENDCHAR
STARTCHAR cent
ENCODING 162
SWIDTH 520 0
DWIDTH 8 0
BBX 7 10 0 0
BITMAP
10
3C
76
90
90
90
90
56
38
10
ENDCHAR
STARTCHAR sterling
ENCODING 163
SWIDTH 520 0
DWIDTH 8 0
BBX 7 10 1 0
BITMAP
38
48
44
40
40
E0
40
44
46
F8
ENDCHAR
STARTCHAR currency
ENCODING 164
SWIDTH 520 0
DWIDTH 8 0
BBX 7 8 0 1
BITMAP
BA
44
82
82
82
82
44
BA
ENDCHAR
STARTCHAR yen
ENCODING 165
SWIDTH 520 0
DWIDTH 8 0
BBX 7 10 0 0
BITMAP
C6
44
6C
EE
28
10
FE
10
10
10
ENDCHAR
STARTCHAR brokenbar
ENCODING 166
SWIDTH 520 0
DWIDTH 8 0
BBX 1 12 3 -1
BITMAP
80
80
80
80
80
80
80
80
80
80
80
80
ENDCHAR
STARTCHAR section
ENCODING 167
SWIDTH 520 0
DWIDTH 8 0
BBX 6 14 1 -1
BITMAP
78
8C
84
80
60
F8
8C
84
64
18
04
84
84
78
ENDCHAR
STARTCHAR dieresis
ENCODING 168
SWIDTH 520 0
DWIDTH 8 0
BBX 4 1 1 9
BITMAP
D0
ENDCHAR
STARTCHAR copyright
ENCODING 169
SWIDTH 520 0
DWIDTH 8 0
BBX 9 9 0 1
BITMAP
3E00
4100
9C80
A680
A080
A480
9E80
6300
3E00
ENDCHAR
STARTCHAR ordfeminine
ENCODING 170
SWIDTH 520 0
DWIDTH 8 0
BBX 5 8 0 2
BITMAP
F0
08
78
88
98
68
00
F8
ENDCHAR
STARTCHAR guillemotleft
ENCODING 171
SWIDTH 520 0
DWIDTH 8 0
BBX 6 5 0 1
BITMAP
24
48
90
48
24
ENDCHAR
STARTCHAR logicalnot
ENCODING 172
SWIDTH 520 0
DWIDTH 8 0
BBX 7 4 0 0
BITMAP
FE
02
02
02
ENDCHAR
STARTCHAR uni00AD
ENCODING 173
SWIDTH 520 0
DWIDTH 8 0
BBX 7 1 0 3
BITMAP
FE
ENDCHAR
STARTCHAR registered
ENCODING 174
SWIDTH 520 0
DWIDTH 8 0
BBX 9 8 0 3
BITMAP
3E00
7D00
A480
A480
BC80
A480
4300
3E00
ENDCHAR
STARTCHAR macron
ENCODING 175
SWIDTH 520 0
DWIDTH 8 0
BBX 5 1 1 8
BITMAP
F8
ENDCHAR
STARTCHAR degree
ENCODING 176
SWIDTH 520 0
DWIDTH 8 0
BBX 5 6 0 5
BITMAP
70
88
88
88
88
70
ENDCHAR
STARTCHAR plusminus
ENCODING 177
SWIDTH 520 0
DWIDTH 8 0
BBX 7 8 0 -1
BITMAP
10
10
10
FE
10
10
10
FE
ENDCHAR
STARTCHAR twosuperior
ENCODING 178
SWIDTH 520 0
DWIDTH 8 0
BBX 3 5 0 5
BITMAP
E0
A0
40
A0
E0
ENDCHAR
STARTCHAR threesuperior
ENCODING 179
SWIDTH 520 0
DWIDTH 8 0
BBX 3 5 0 5
BITMAP
E0
A0
60
A0
E0
ENDCHAR
STARTCHAR acute
ENCODING 180
SWIDTH 520 0
DWIDTH 8 0
BBX 3 2 2 8
BITMAP
20
C0
ENDCHAR
STARTCHAR mu
ENCODING 181
SWIDTH 520 0
DWIDTH 8 0
BBX 6 10 0 -3
BITMAP
84
84
84
84
84
8C
F4
80
80
80
ENDCHAR
STARTCHAR paragraph
ENCODING 182
SWIDTH 520 0
DWIDTH 8 0
BBX 7 10 0 0
BITMAP
7E
D2
92
92
92
7E
12
12
12
12
ENDCHAR
STARTCHAR periodcentered
ENCODING 183
SWIDTH 520 0
DWIDTH 8 0
BBX 1 1 3 3
BITMAP
80
ENDCHAR
STARTCHAR cedilla
ENCODING 184
SWIDTH 520 0
DWIDTH 8 0
BBX 3 3 1 -3
BITMAP
20
20
C0
ENDCHAR
STARTCHAR onesuperior
ENCODING 185
SWIDTH 520 0
DWIDTH 8 0
BBX 3 5 0 5
BITMAP
40
C0
C0
40
E0
ENDCHAR
STARTCHAR ordmasculine
ENCODING 186
SWIDTH 520 0
DWIDTH 8 0
BBX 6 8 0 2
BITMAP
70
88
88
88
88
70
00
FC
ENDCHAR
STARTCHAR guillemotright
ENCODING 187
SWIDTH 520 0
DWIDTH 8 0
BBX 6 5 1 1
BITMAP
90
48
24
48
90
ENDCHAR
STARTCHAR onequarter
ENCODING 188
SWIDTH 520 0
DWIDTH 8 0
BBX 7 10 0 0
BITMAP
42
C4
48
48
F0
20
2C
4C
9E
8E
ENDCHAR
STARTCHAR onehalf
ENCODING 189
SWIDTH 520 0
DWIDTH 8 0
BBX 7 10 0 0
BITMAP
42
C4
44
48
F0
10
2E
4A
46
8E
ENDCHAR
STARTCHAR threequarters
ENCODING 190
SWIDTH 520 0
DWIDTH 8 0
BBX 7 10 0 0
BITMAP
C2
A4
48
A8
F0
20
2C
4C
9E
8E
ENDCHAR
STARTCHAR questiondown
ENCODING 191
SWIDTH 520 0
DWIDTH 8 0
BBX 5 10 2 0
BITMAP
20
00
00
20
20
40
80
88
88
70
ENDCHAR
STARTCHAR Agrave
ENCODING 192
SWIDTH 520 0
DWIDTH 8 0
BBX 7 13 0 0
BITMAP
20
18
00
10
28
28
28
44
44
7C
82
82
82
ENDCHAR
STARTCHAR Aacute
ENCODING 193
SWIDTH 520 0
DWIDTH 8 0
BBX 7 13 0 0
BITMAP
08
30
00
10
28
28
28
44
44
7C
82
82
82
ENDCHAR
STARTCHAR Acircumflex
ENCODING 194
SWIDTH 520 0
DWIDTH 8 0
BBX 7 13 0 0
BITMAP
30
4C
00
10
28
28
28
44
44
7C
82
82
82
ENDCHAR
STARTCHAR Atilde
ENCODING 195
SWIDTH 520 0
DWIDTH 8 0
BBX 7 13 0 0
BITMAP
74
9C
00
10
28
28
28
44
44
7C
82
82
82
ENDCHAR
STARTCHAR Adieresis
ENCODING 196
SWIDTH 520 0
DWIDTH 8 0
BBX 7 13 0 0
BITMAP
68
00
00
10
28
28
28
44
44
7C
82
82
82
ENDCHAR
STARTCHAR Aring
ENCODING 197
SWIDTH 520 0
DWIDTH 8 0
BBX 8 13 -1 0
BITMAP
1C
24
24
18
1C
14
34
24
22
3E
42
41
C1
ENDCHAR
STARTCHAR AE
ENCODING 198
SWIDTH 520 0
DWIDTH 8 0
BBX 8 10 -1 0
BITMAP
1F
18
18
28
28
2E
78
48
48
CF
ENDCHAR
STARTCHAR Ccedilla
ENCODING 199
SWIDTH 520 0
DWIDTH 8 0
BBX 7 13 0 -3
BITMAP
3A
46
82
80
80
80
80
82
44
38
10
70
60
ENDCHAR
STARTCHAR Egrave
ENCODING 200
SWIDTH 520 0
DWIDTH 8 0
BBX 6 13 0 0
BITMAP
20
18
00
FC
80
80
80
80
F8
80
80
80
FC
ENDCHAR
STARTCHAR Eacute
ENCODING 201
SWIDTH 520 0
DWIDTH 8 0
BBX 6 13 0 0
BITMAP
08
30
00
FC
80
80
80
80
F8
80
80
80
FC
ENDCHAR
STARTCHAR Ecircumflex
ENCODING 202
SWIDTH 520 0
DWIDTH 8 0
BBX 6 13 0 0
BITMAP
30
4C
00
FC
80
80
80
80
F8
80
80
80
FC
ENDCHAR
STARTCHAR Edieresis
ENCODING 203
SWIDTH 520 0
DWIDTH 8 0
BBX 6 13 0 0
BITMAP
68
00
00
FC
80
80
80
80
F8
80
80
80
FC
ENDCHAR
STARTCHAR Igrave
ENCODING 204
SWIDTH 520 0
DWIDTH 8 0
BBX 5 13 1 0
BITMAP
40
30
00
F8
20
20
20
20
20
20
20
20
F8
ENDCHAR
STARTCHAR Iacute
ENCODING 205
SWIDTH 520 0
DWIDTH 8 0
BBX 5 13 1 0
BITMAP
10
60
00
F8
20
20
20
20
20
20
20
20
F8
ENDCHAR
STARTCHAR Icircumflex
ENCODING 206
SWIDTH 520 0
DWIDTH 8 0
BBX 5 13 1 0
BITMAP
60
98
00
F8
20
20
20
20
20
20
20
20
F8
ENDCHAR
STARTCHAR Idieresis
ENCODING 207
SWIDTH 520 0
DWIDTH 8 0
BBX 5 13 1 0
BITMAP
D0
00
00
F8
20
20
20
20
20
20
20
20
F8
ENDCHAR
STARTCHAR Eth
ENCODING 208
SWIDTH 520 0
DWIDTH 8 0
BBX 8 10 -1 0
BITMAP
7C
42
41
41
41
F1
41
41
42
7C
ENDCHAR
STARTCHAR Ntilde
ENCODING 209
SWIDTH 520 0
DWIDTH 8 0
BBX 6 13 0 0
BITMAP
74
9C
00
C4
C4
E4
A4
A4
94
94
8C
8C
84
ENDCHAR
STARTCHAR Ograve
ENCODING 210
SWIDTH 520 0
DWIDTH 8 0
BBX 7 13 0 0
BITMAP
20
18
00
38
44
82
82
82
82
82
82
44
38
ENDCHAR
STARTCHAR Oacute
ENCODING 211
SWIDTH 520 0
DWIDTH 8 0
BBX 7 13 0 0
BITMAP
08
30
00
38
44
82
82
82
82
82
82
44
38
ENDCHAR
STARTCHAR Ocircumflex
ENCODING 212
SWIDTH 520 0
DWIDTH 8 0
BBX 7 13 0 0
BITMAP
30
4C
00
38
44
82
82
82
82
82
82
44
38
ENDCHAR
STARTCHAR Otilde
ENCODING 213
SWIDTH 520 0
DWIDTH 8 0
BBX 7 13 0 0
BITMAP
74
9C
00
38
44
82
82
82
82
82
82
44
38
ENDCHAR
STARTCHAR Odieresis
ENCODING 214
SWIDTH 520 0
DWIDTH 8 0
BBX 7 13 0 0
BITMAP
68
00
00
38
44
82
82
82
82
82
82
44
38
ENDCHAR
STARTCHAR multiply
ENCODING 215
SWIDTH 520 0
DWIDTH 8 0
BBX 5 5 1 1
BITMAP
88
50
20
50
88
ENDCHAR
STARTCHAR Oslash
ENCODING 216
SWIDTH 520 0
DWIDTH 8 0
BBX 7 10 0 0
BITMAP
3A
46
82
8E
92
A2
C2
82
C4
B8
ENDCHAR
STARTCHAR Ugrave
ENCODING 217
SWIDTH 520 0
DWIDTH 8 0
BBX 6 13 0 0
BITMAP
20
18
00
84
84
84
84
84
84
84
84
CC
78
ENDCHAR
STARTCHAR Uacute
ENCODING 218
SWIDTH 520 0
DWIDTH 8 0
BBX 6 13 0 0
BITMAP
08
30
00
84
84
84
84
84
84
84
84
CC
78
ENDCHAR
STARTCHAR Ucircumflex
ENCODING 219
SWIDTH 520 0
DWIDTH 8 0
BBX 6 13 0 0
BITMAP
30
4C
00
84
84
84
84
84
84
84
84
CC
78
ENDCHAR
STARTCHAR Udieresis
ENCODING 220
SWIDTH 520 0
DWIDTH 8 0
BBX 6 13 0 0
BITMAP
68
00
00
84
84
84
84
84
84
84
84
CC
78
ENDCHAR
STARTCHAR Yacute
ENCODING 221
SWIDTH 520 0
DWIDTH 8 0
BBX 7 13 0 0
BITMAP
08
30
00
EE
44
6C
28
28
10
10
10
10
7C
ENDCHAR
STARTCHAR Thorn
ENCODING 222
SWIDTH 520 0
DWIDTH 8 0
BBX 7 10 0 0
BITMAP
80
80
FC
86
82
82
86
FC
80
80
ENDCHAR
STARTCHAR germandbls
ENCODING 223
SWIDTH 520 0
DWIDTH 8 0
BBX 7 10 0 0
BITMAP
78
C4
84
88
90
98
84
82
A2
9C
ENDCHAR
STARTCHAR agrave
ENCODING 224
SWIDTH 520 0
DWIDTH 8 0
BBX 6 10 0 0
BITMAP
20
18
00
78
84
04
7C
84
8C
74
ENDCHAR
STARTCHAR aacute
ENCODING 225
SWIDTH 520 0
DWIDTH 8 0
BBX 6 10 0 0
BITMAP
08
30
00
78
84
04
7C
84
8C
74
ENDCHAR
STARTCHAR acircumflex
ENCODING 226
SWIDTH 520 0
DWIDTH 8 0
BBX 6 10 0 0
BITMAP
30
4C
00
78
84
04
7C
84
8C
74
ENDCHAR
STARTCHAR atilde
ENCODING 227
SWIDTH 520 0
DWIDTH 8 0
BBX 6 10 0 0
BITMAP
74
9C
00
78
84
04
7C
84
8C
74
ENDCHAR
STARTCHAR adieresis
ENCODING 228
SWIDTH 520 0
DWIDTH 8 0
BBX 6 10 0 0
BITMAP
68
00
00
78
84
04
7C
84
8C
74
ENDCHAR
STARTCHAR aring
ENCODING 229
SWIDTH 520 0
DWIDTH 8 0
BBX 6 11 0 0
BITMAP
38
48
38
00
78
84
04
7C
84
8C
74
ENDCHAR
STARTCHAR ae
ENCODING 230
SWIDTH 520 0
DWIDTH 8 0
BBX 7 7 0 0
BITMAP
6C
92
12
7E
90
92
EC
ENDCHAR
STARTCHAR ccedilla
ENCODING 231
SWIDTH 520 0
DWIDTH 9 0
BBX 7 10 0 -3
BITMAP
3A
46
82
80
80
46
7C
10
70
60
ENDCHAR
STARTCHAR egrave
ENCODING 232
SWIDTH 520 0
DWIDTH 8 0
BBX 7 10 0 0
BITMAP
20
18
00
38
44
82
FE
80
46
3C
ENDCHAR
STARTCHAR eacute
ENCODING 233
SWIDTH 520 0
DWIDTH 8 0
BBX 7 10 0 0
BITMAP
08
30
00
38
44
82
FE
80
46
3C
ENDCHAR
STARTCHAR ecircumflex
ENCODING 234
SWIDTH 520 0
DWIDTH 8 0
BBX 7 10 0 0
BITMAP
30
4C
00
38
44
82
FE
80
46
3C
ENDCHAR
STARTCHAR edieresis
ENCODING 235
SWIDTH 520 0
DWIDTH 8 0
BBX 7 10 0 0
BITMAP
68
00
00
38
44
82
FE
80
46
3C
ENDCHAR
STARTCHAR igrave
ENCODING 236
SWIDTH 520 0
DWIDTH 8 0
BBX 5 10 1 0
BITMAP
40
30
00
E0
20
20
20
20
20
F8
ENDCHAR
STARTCHAR iacute
ENCODING 237
SWIDTH 520 0
DWIDTH 8 0
BBX 5 10 1 0
BITMAP
10
60
00
E0
20
20
20
20
20
F8
ENDCHAR
STARTCHAR icircumflex
ENCODING 238
SWIDTH 520 0
DWIDTH 8 0
BBX 5 10 1 0
BITMAP
60
98
00
E0
20
20
20
20
20
F8
ENDCHAR
STARTCHAR idieresis
ENCODING 239
SWIDTH 520 0
DWIDTH 8 0
BBX 5 10 1 0
BITMAP
D0
00
00
E0
20
20
20
20
20
F8
ENDCHAR
STARTCHAR eth
ENCODING 240
SWIDTH 520 0
DWIDTH 8 0
BBX 7 10 0 0
BITMAP
48
30
2C
04
3A
42
82
82
84
78
ENDCHAR
STARTCHAR ntilde
ENCODING 241
SWIDTH 520 0
DWIDTH 8 0
BBX 6 10 0 0
BITMAP
74
9C
00
B8
C4
84
84
84
84
84
ENDCHAR
STARTCHAR ograve
ENCODING 242
SWIDTH 520 0
DWIDTH 8 0
BBX 7 10 0 0
BITMAP
20
18
00
38
44
82
82
82
44
38
ENDCHAR
STARTCHAR oacute
ENCODING 243
SWIDTH 520 0
DWIDTH 8 0
BBX 7 10 0 0
BITMAP
08
30
00
38
44
82
82
82
44
38
ENDCHAR
STARTCHAR ocircumflex
ENCODING 244
SWIDTH 520 0
DWIDTH 8 0
BBX 7 10 0 0
BITMAP
30
4C
00
38
44
82
82
82
44
38
ENDCHAR
STARTCHAR otilde
ENCODING 245
SWIDTH 520 0
DWIDTH 8 0
BBX 7 10 0 0
BITMAP
74
9C
00
38
44
82
82
82
44
38
ENDCHAR
STARTCHAR odieresis
ENCODING 246
SWIDTH 520 0
DWIDTH 8 0
BBX 7 10 0 0
BITMAP
68
00
00
38
44
82
82
82
44
38
ENDCHAR
STARTCHAR divide
ENCODING 247
SWIDTH 520 0
DWIDTH 8 0
BBX 7 7 0 0
BITMAP
10
00
00
FE
00
00
10
ENDCHAR
STARTCHAR oslash
ENCODING 248
SWIDTH 520 0
DWIDTH 8 0
BBX 7 7 0 0
BITMAP
3A
46
8A
92
A2
C4
B8
ENDCHAR
STARTCHAR ugrave
ENCODING 249
SWIDTH 520 0
DWIDTH 8 0
BBX 6 10 0 0
BITMAP
20
18
00
84
84
84
84
84
8C
74
ENDCHAR
STARTCHAR uacute
ENCODING 250
SWIDTH 520 0
DWIDTH 8 0
BBX 6 10 0 0
BITMAP
08
30
00
84
84
84
84
84
8C
74
ENDCHAR
STARTCHAR ucircumflex
ENCODING 251
SWIDTH 520 0
DWIDTH 8 0
BBX 6 10 0 0
BITMAP
30
4C
00
84
84
84
84
84
8C
74
ENDCHAR
STARTCHAR udieresis
ENCODING 252
SWIDTH 520 0
DWIDTH 8 0
BBX 6 10 0 0
BITMAP
68
00
00
84
84
84
84
84
8C
74
ENDCHAR
STARTCHAR yacute
ENCODING 253
SWIDTH 520 0
DWIDTH 8 0
BBX 7 13 0 -3
BITMAP
08
30
00
82
C6
44
44
28
28
10
10
30
E0
ENDCHAR
STARTCHAR thorn
ENCODING 254
SWIDTH 520 0
DWIDTH 8 0
BBX 7 13 0 -3
BITMAP
80
80
80
F8
84
82
82
82
84
F8
80
80
80
ENDCHAR
STARTCHAR ydieresis
ENCODING 255
SWIDTH 520 0
DWIDTH 8 0
BBX 7 13 0 -3
BITMAP
68
00
00
82
C6
44
44
28
28
10
10
30
E0
ENDCHAR
STARTCHAR Amacron
ENCODING 256
SWIDTH 520 0
DWIDTH 8 0
BBX 7 12 0 0
BITMAP
7C
00
10
28
28
28
44
44
7C
82
82
82
ENDCHAR
STARTCHAR amacron
ENCODING 257
SWIDTH 520 0
DWIDTH 8 0
BBX 6 9 0 0
BITMAP
7C
00
78
84
04
7C
84
8C
74
ENDCHAR
STARTCHAR Abreve
ENCODING 258
SWIDTH 520 0
DWIDTH 8 0
BBX 7 13 0 0
BITMAP
48
3C
00
10
28
28
28
44
44
7C
82
82
82
ENDCHAR
STARTCHAR abreve
ENCODING 259
SWIDTH 520 0
DWIDTH 8 0
BBX 6 10 0 0
BITMAP
48
3C
00
78
84
04
7C
84
8C
74
ENDCHAR
STARTCHAR Aogonek
ENCODING 260
SWIDTH 520 0
DWIDTH 8 0
BBX 9 13 -1 -3
BITMAP
0800
1400
1400
1400
2200
2200
3E00
4300
4100
4100
8100
0100
0080
ENDCHAR
STARTCHAR aogonek
ENCODING 261
SWIDTH 520 0
DWIDTH 8 0
BBX 7 10 0 -3
BITMAP
78
84
04
7C
84
8C
74
04
04
02
ENDCHAR
STARTCHAR Cacute
ENCODING 262
SWIDTH 520 0
DWIDTH 8 0
BBX 7 13 0 0
BITMAP
08
30
00
3A
46
82
80
80
80
80
82
44
38
ENDCHAR
STARTCHAR cacute
ENCODING 263
SWIDTH 520 0
DWIDTH 8 0
BBX 6 10 0 0
BITMAP
08
30
00
7C
8C
84
80
80
44
78
ENDCHAR
STARTCHAR Ccircumflex
ENCODING 264
SWIDTH 520 0
DWIDTH 8 0
BBX 7 13 0 0
BITMAP
30
4C
00
3A
46
82
80
80
80
80
82
44
38
ENDCHAR
STARTCHAR ccircumflex
ENCODING 265
SWIDTH 520 0
DWIDTH 8 0
BBX 6 10 0 0
BITMAP
30
4C
00
7C
8C
84
80
80
44
78
ENDCHAR
STARTCHAR Cdotaccent
ENCODING 266
SWIDTH 520 0
DWIDTH 8 0
BBX 7 13 0 0
BITMAP
10
10
00
3A
46
82
80
80
80
80
82
44
38
ENDCHAR
STARTCHAR cdotaccent
ENCODING 267
SWIDTH 520 0
DWIDTH 8 0
BBX 6 10 0 0
BITMAP
10
10
00
7C
8C
84
80
80
44
78
ENDCHAR
STARTCHAR Ccaron
ENCODING 268
SWIDTH 520 0
DWIDTH 8 0
BBX 7 13 0 0
BITMAP
44
38
00
3A
46
82
80
80
80
80
82
44
38
ENDCHAR
STARTCHAR ccaron
ENCODING 269
SWIDTH 520 0
DWIDTH 8 0
BBX 6 10 0 0
BITMAP
44
38
00
7C
8C
84
80
80
44
78
ENDCHAR
STARTCHAR Dcaron
ENCODING 270
SWIDTH 520 0
DWIDTH 8 0
BBX 7 13 0 0
BITMAP
44
38
00
F8
84
82
82
82
82
82
82
84
F8
ENDCHAR
STARTCHAR dcaron
ENCODING 271
SWIDTH 520 0
DWIDTH 8 0
BBX 8 10 0 0
BITMAP
19
09
09
7A
88
88
88
88
88
78
ENDCHAR
STARTCHAR Dcroat
ENCODING 272
SWIDTH 520 0
DWIDTH 8 0
BBX 8 10 -1 0
BITMAP
7C
42
41
41
41
F1
41
41
42
7C
ENDCHAR
STARTCHAR dcroat
ENCODING 273
SWIDTH 520 0
DWIDTH 8 0
BBX 7 10 0 0
BITMAP
04
04
0E
7C
84
84
84
84
84
7C
ENDCHAR
STARTCHAR Emacron
ENCODING 274
SWIDTH 520 0
DWIDTH 8 0
BBX 6 12 0 0
BITMAP
7C
00
FC
80
80
80
80
F8
80
80
80
FC
ENDCHAR
STARTCHAR emacron
ENCODING 275
SWIDTH 520 0
DWIDTH 8 0
BBX 7 9 0 0
BITMAP
7C
00
38
44
82
FE
80
46
3C
ENDCHAR
STARTCHAR Ebreve
ENCODING 276
SWIDTH 520 0
DWIDTH 8 0
BBX 6 13 0 0
BITMAP
48
3C
00
FC
80
80
80
80
F8
80
80
80
FC
ENDCHAR
STARTCHAR ebreve
ENCODING 277
SWIDTH 520 0
DWIDTH 8 0
BBX 7 10 0 0
BITMAP
48
3C
00
38
44
82
FE
80
46
3C
ENDCHAR
STARTCHAR Edotaccent
ENCODING 278
SWIDTH 520 0
DWIDTH 8 0
BBX 6 13 0 0
BITMAP
10
10
00
FC
80
80
80
80
F8
80
80
80
FC
ENDCHAR
STARTCHAR edotaccent
ENCODING 279
SWIDTH 520 0
DWIDTH 8 0
BBX 7 10 0 0
BITMAP
10
10
00
38
44
82
FE
80
46
3C
ENDCHAR
STARTCHAR Eogonek
ENCODING 280
SWIDTH 520 0
DWIDTH 8 0
BBX 7 13 0 -3
BITMAP
FC
80
80
80
80
F8
80
80
80
FC
04
04
02
ENDCHAR
STARTCHAR eogonek
ENCODING 281
SWIDTH 520 0
DWIDTH 8 0
BBX 7 10 0 -3
BITMAP
3C
46
82
FE
80
42
3C
08
08
04
ENDCHAR
STARTCHAR Ecaron
ENCODING 282
SWIDTH 520 0
DWIDTH 8 0
BBX 6 13 0 0
BITMAP
44
38
00
FC
80
80
80
80
F8
80
80
80
FC
ENDCHAR
STARTCHAR ecaron
ENCODING 283
SWIDTH 520 0
DWIDTH 8 0
BBX 7 10 0 0
BITMAP
44
38
00
38
44
82
FE
80
46
3C
ENDCHAR
STARTCHAR Gcircumflex
ENCODING 284
SWIDTH 520 0
DWIDTH 8 0
BBX 7 13 0 0
BITMAP
30
4C
00
3A
46
82
80
80
8E
82
82
44
38
ENDCHAR
STARTCHAR gcircumflex
ENCODING 285
SWIDTH 520 0
DWIDTH 8 0
BBX 6 13 0 -3
BITMAP
30
4C
00
7C
84
84
84
84
84
7C
04
CC
78
ENDCHAR
STARTCHAR Gbreve
ENCODING 286
SWIDTH 520 0
DWIDTH 8 0
BBX 7 13 0 0
BITMAP
48
3C
00
3A
46
82
80
80
8E
82
82
44
38
ENDCHAR
STARTCHAR gbreve
ENCODING 287
SWIDTH 520 0
DWIDTH 8 0
BBX 6 13 0 -3
BITMAP
48
3C
00
7C
84
84
84
84
84
7C
04
CC
78
ENDCHAR
STARTCHAR Gdotaccent
ENCODING 288
SWIDTH 520 0
DWIDTH 8 0
BBX 7 13 0 0
BITMAP
10
10
00
3A
46
82
80
80
8E
82
82
44
38
ENDCHAR
STARTCHAR gdotaccent
ENCODING 289
SWIDTH 520 0
DWIDTH 8 0
BBX 6 13 0 -3
BITMAP
10
10
00
7C
84
84
84
84
84
7C
04
CC
78
ENDCHAR
STARTCHAR Gcommaaccent
ENCODING 290
SWIDTH 520 0
DWIDTH 8 0
BBX 7 13 0 -3
BITMAP
3A
46
82
80
80
8E
82
82
44
38
00
18
30
ENDCHAR
STARTCHAR gcommaaccent
ENCODING 291
SWIDTH 520 0
DWIDTH 8 0
BBX 6 14 0 -3
BITMAP
10
10
20
00
7C
84
84
84
84
84
7C
04
CC
78
ENDCHAR
STARTCHAR Hcircumflex
ENCODING 292
SWIDTH 520 0
DWIDTH 8 0
BBX 6 13 0 0
BITMAP
30
4C
00
84
84
84
84
84
FC
84
84
84
84
ENDCHAR
STARTCHAR hcircumflex
ENCODING 293
SWIDTH 520 0
DWIDTH 8 0
BBX 6 13 0 0
BITMAP
30
4C
00
80
80
80
B8
C4
84
84
84
84
84
ENDCHAR
STARTCHAR Hbar
ENCODING 294
SWIDTH 520 0
DWIDTH 8 0
BBX 8 10 -1 0
BITMAP
42
42
FF
42
42
7E
42
42
42
42
ENDCHAR
STARTCHAR hbar
ENCODING 295
SWIDTH 520 0
DWIDTH 8 0
BBX 7 10 -1 0
BITMAP
40
40
E0
5C
62
42
42
42
42
42
ENDCHAR
STARTCHAR Itilde
ENCODING 296
SWIDTH 520 0
DWIDTH 8 0
BBX 5 13 1 0
BITMAP
E8
B8
00
F8
20
20
20
20
20
20
20
20
F8
ENDCHAR
STARTCHAR itilde
ENCODING 297
SWIDTH 520 0
DWIDTH 8 0
BBX 5 10 1 0
BITMAP
E8
B8
00
E0
20
20
20
20
20
F8
ENDCHAR
STARTCHAR Imacron
ENCODING 298
SWIDTH 520 0
DWIDTH 8 0
BBX 5 12 1 0
BITMAP
F8
00
F8
20
20
20
20
20
20
20
20
F8
ENDCHAR
STARTCHAR imacron
ENCODING 299
SWIDTH 520 0
DWIDTH 8 0
BBX 5 9 1 0
BITMAP
F8
00
E0
20
20
20
20
20
F8
ENDCHAR
STARTCHAR Ibreve
ENCODING 300
SWIDTH 520 0
DWIDTH 8 0
BBX 5 13 1 0
BITMAP
90
78
00
F8
20
20
20
20
20
20
20
20
F8
ENDCHAR
STARTCHAR ibreve
ENCODING 301
SWIDTH 520 0
DWIDTH 8 0
BBX 5 10 1 0
BITMAP
90
78
00
E0
20
20
20
20
20
F8
ENDCHAR
STARTCHAR Iogonek
ENCODING 302
SWIDTH 520 0
DWIDTH 8 0
BBX 5 13 1 -3
BITMAP
F8
20
20
20
20
20
20
20
20
F0
10
10
08
ENDCHAR
STARTCHAR iogonek
ENCODING 303
SWIDTH 520 0
DWIDTH 8 0
BBX 5 13 1 -3
BITMAP
20
00
00
E0
20
20
20
20
20
F0
10
10
08
ENDCHAR
STARTCHAR Idotaccent
ENCODING 304
SWIDTH 520 0
DWIDTH 8 0
BBX 5 13 1 0
BITMAP
20
20
00
F8
20
20
20
20
20
20
20
20
F8
ENDCHAR
STARTCHAR dotlessi
ENCODING 305
SWIDTH 520 0
DWIDTH 8 0
BBX 5 7 1 0
BITMAP
E0
20
20
20
20
20
F8
ENDCHAR
STARTCHAR IJ
ENCODING 306
SWIDTH 520 0
DWIDTH 8 0
BBX 7 13 0 -3
BITMAP
FA
22
22
22
22
22
22
22
22
FA
02
46
3C
ENDCHAR
STARTCHAR ij
ENCODING 307
SWIDTH 520 0
DWIDTH 9 0
BBX 7 13 0 -3
BITMAP
62
00
00
EE
22
22
22
22
22
FA
02
22
1C
ENDCHAR
STARTCHAR Jcircumflex
ENCODING 308
SWIDTH 520 0
DWIDTH 8 0
BBX 7 13 0 0
BITMAP
30
4C
00
02
02
02
02
02
02
02
82
46
3C
ENDCHAR
STARTCHAR jcircumflex
ENCODING 309
SWIDTH 520 0
DWIDTH 8 0
BBX 6 13 0 -3
BITMAP
18
24
00
38
08
08
08
08
08
08
08
88
70
ENDCHAR
STARTCHAR Kcommaaccent
ENCODING 310
SWIDTH 520 0
DWIDTH 8 0
BBX 7 13 0 -3
BITMAP
86
88
90
A0
E0
E0
90
88
88
84
02
18
30
ENDCHAR
STARTCHAR kcommaaccent
ENCODING 311
SWIDTH 520 0
DWIDTH 8 0
BBX 7 13 0 -3
BITMAP
80
80
80
8C
98
B0
E0
D0
88
84
02
18
30
ENDCHAR
STARTCHAR kgreenlandic
ENCODING 312
SWIDTH 520 0
DWIDTH 8 0
BBX 7 7 0 0
BITMAP
8C
98
B0
E0
D0
88
86
ENDCHAR
STARTCHAR Lacute
ENCODING 313
SWIDTH 520 0
DWIDTH 8 0
BBX 6 13 0 0
BITMAP
08
30
00
80
80
80
80
80
80
80
80
80
FC
ENDCHAR
STARTCHAR lacute
ENCODING 314
SWIDTH 520 0
DWIDTH 8 0
BBX 5 13 1 0
BITMAP
10
60
00
E0
20
20
20
20
20
20
20
20
F8
ENDCHAR
STARTCHAR Lcommaaccent
ENCODING 315
SWIDTH 520 0
DWIDTH 8 0
BBX 6 13 0 -3
BITMAP
80
80
80
80
80
80
80
80
80
FC
00
18
30
ENDCHAR
STARTCHAR lcommaaccent
ENCODING 316
SWIDTH 520 0
DWIDTH 8 0
BBX 5 13 1 -3
BITMAP
E0
20
20
20
20
20
20
20
20
F8
00
30
60
ENDCHAR
STARTCHAR Lcaron
ENCODING 317
SWIDTH 520 0
DWIDTH 8 0
BBX 6 10 0 0
BITMAP
84
84
84
88
80
80
80
80
80
FC
ENDCHAR
STARTCHAR lcaron
ENCODING 318
SWIDTH 520 0
DWIDTH 8 0
BBX 6 10 1 0
BITMAP
E4
24
24
28
20
20
20
20
20
F8
ENDCHAR
STARTCHAR Ldot
ENCODING 319
SWIDTH 520 0
DWIDTH 8 0
BBX 6 10 0 0
BITMAP
80
80
80
80
80
8C
80
80
80
FC
ENDCHAR
STARTCHAR ldot
ENCODING 320
SWIDTH 520 0
DWIDTH 8 0
BBX 7 10 1 0
BITMAP
E0
20
20
20
20
20
22
20
20
F8
ENDCHAR
STARTCHAR Lslash
ENCODING 321
SWIDTH 520 0
DWIDTH 8 0
BBX 8 10 -2 0
BITMAP
20
20
20
20
38
E0
20
20
20
3F
ENDCHAR
STARTCHAR lslash
ENCODING 322
SWIDTH 520 0
DWIDTH 8 0
BBX 5 10 1 0
BITMAP
E0
20
20
20
38
E0
20
20
20
F8
ENDCHAR
STARTCHAR Nacute
ENCODING 323
SWIDTH 520 0
DWIDTH 8 0
BBX 6 13 0 0
BITMAP
08
30
00
C4
C4
E4
A4
A4
94
94
8C
8C
84
ENDCHAR
STARTCHAR nacute
ENCODING 324
SWIDTH 520 0
DWIDTH 8 0
BBX 6 10 0 0
BITMAP
08
30
00
B8
C4
84
84
84
84
84
ENDCHAR
STARTCHAR Ncommaaccent
ENCODING 325
SWIDTH 520 0
DWIDTH 8 0
BBX 6 13 0 -3
BITMAP
C4
C4
E4
A4
A4
94
94
8C
8C
84
00
18
30
ENDCHAR
STARTCHAR ncommaaccent
ENCODING 326
SWIDTH 520 0
DWIDTH 8 0
BBX 6 10 0 -3
BITMAP
B8
C4
84
84
84
84
84
00
18
30
ENDCHAR
STARTCHAR Ncaron
ENCODING 327
SWIDTH 520 0
DWIDTH 8 0
BBX 6 13 0 0
BITMAP
44
38
00
C4
C4
E4
A4
A4
94
94
8C
8C
84
ENDCHAR
STARTCHAR ncaron
ENCODING 328
SWIDTH 520 0
DWIDTH 8 0
BBX 6 10 0 0
BITMAP
44
38
00
B8
C4
84
84
84
84
84
ENDCHAR
STARTCHAR napostrophe
ENCODING 329
SWIDTH 520 0
DWIDTH 8 0
BBX 6 12 0 0
BITMAP
80
80
80
80
00
B8
C4
84
84
84
84
84
ENDCHAR
STARTCHAR Eng
ENCODING 330
SWIDTH 520 0
DWIDTH 8 0
BBX 6 13 0 -3
BITMAP
C4
C4
E4
A4
A4
94
94
8C
8C
84
04
8C
78
ENDCHAR
STARTCHAR eng
ENCODING 331
SWIDTH 520 0
DWIDTH 8 0
BBX 6 10 0 -3
BITMAP
B8
C4
84
84
84
84
84
04
04
38
ENDCHAR
STARTCHAR Omacron
ENCODING 332
SWIDTH 520 0
DWIDTH 8 0
BBX 7 12 0 0
BITMAP
7C
00
38
44
82
82
82
82
82
82
44
38
ENDCHAR
STARTCHAR omacron
ENCODING 333
SWIDTH 520 0
DWIDTH 8 0
BBX 7 9 0 0
BITMAP
7C
00
38
44
82
82
82
44
38
ENDCHAR
STARTCHAR Obreve
ENCODING 334
SWIDTH 520 0
DWIDTH 8 0
BBX 7 13 0 0
BITMAP
48
3C
00
38
44
82
82
82
82
82
82
44
38
ENDCHAR
STARTCHAR obreve
ENCODING 335
SWIDTH 520 0
DWIDTH 8 0
BBX 7 10 0 0
BITMAP
48
3C
00
38
44
82
82
82
44
38
ENDCHAR
STARTCHAR Ohungarumlaut
ENCODING 336
SWIDTH 520 0
DWIDTH 8 0
BBX 7 13 0 0
BITMAP
34
28
40
38
44
82
82
82
82
82
82
44
38
ENDCHAR
STARTCHAR ohungarumlaut
ENCODING 337
SWIDTH 520 0
DWIDTH 8 0
BBX 7 10 0 0
BITMAP
34
28
40
38
44
82
82
82
44
38
ENDCHAR
STARTCHAR OE
ENCODING 338
SWIDTH 520 0
DWIDTH 8 0
BBX 7 10 0 0
BITMAP
7E
90
90
90
90
9C
90
90
90
7E
ENDCHAR
STARTCHAR oe
ENCODING 339
SWIDTH 520 0
DWIDTH 8 0
BBX 7 7 0 0
BITMAP
6C
92
92
9E
90
92
6C
ENDCHAR
STARTCHAR Racute
ENCODING 340
SWIDTH 520 0
DWIDTH 8 0
BBX 7 13 0 0
BITMAP
08
30
00
FC
82
82
82
82
FC
98
88
8C
86
ENDCHAR
STARTCHAR racute
ENCODING 341
SWIDTH 520 0
DWIDTH 8 0
BBX 7 10 0 0
BITMAP
08
30
00
EE
30
20
20
20
20
F8
ENDCHAR
STARTCHAR Rcommaaccent
ENCODING 342
SWIDTH 520 0
DWIDTH 8 0
BBX 7 13 0 -3
BITMAP
FC
82
82
82
82
FC
98
88
8C
86
00
18
30
ENDCHAR
STARTCHAR rcommaaccent
ENCODING 343
SWIDTH 520 0
DWIDTH 8 0
BBX 7 10 0 -3
BITMAP
EE
30
20
20
20
20
F8
00
18
30
ENDCHAR
STARTCHAR Rcaron
ENCODING 344
SWIDTH 520 0
DWIDTH 8 0
BBX 7 13 0 0
BITMAP
44
38
00
FC
82
82
82
82
FC
98
88
8C
86
ENDCHAR
STARTCHAR rcaron
ENCODING 345
SWIDTH 520 0
DWIDTH 8 0
BBX 7 10 0 0
BITMAP
44
38
00
EE
30
20
20
20
20
F8
ENDCHAR
STARTCHAR Sacute
ENCODING 346
SWIDTH 520 0
DWIDTH 9 0
BBX 7 13 0 0
BITMAP
08
30
00
7A
86
82
C0
38
0C
06
82
C6
BC
ENDCHAR
STARTCHAR sacute
ENCODING 347
SWIDTH 520 0
DWIDTH 8 0
BBX 7 10 -1 0
BITMAP
04
18
00
3C
42
40
3C
02
42
FC
ENDCHAR
STARTCHAR Scircumflex
ENCODING 348
SWIDTH 520 0
DWIDTH 9 0
BBX 7 13 0 0
BITMAP
30
4C
00
7A
86
82
C0
38
0C
06
82
C6
BC
ENDCHAR
STARTCHAR scircumflex
ENCODING 349
SWIDTH 520 0
DWIDTH 8 0
BBX 7 10 -1 0
BITMAP
18
26
00
3C
42
40
3C
02
42
FC
ENDCHAR
STARTCHAR Scedilla
ENCODING 350
SWIDTH 520 0
DWIDTH 9 0
BBX 7 13 0 -3
BITMAP
7A
86
82
80
70
0C
06
82
C6
FC
10
10
60
ENDCHAR
STARTCHAR scedilla
ENCODING 351
SWIDTH 520 0
DWIDTH 8 0
BBX 7 10 0 -3
BITMAP
78
84
80
78
06
82
FC
10
10
60
ENDCHAR
STARTCHAR Scaron
ENCODING 352
SWIDTH 520 0
DWIDTH 9 0
BBX 7 13 0 0
BITMAP
44
38
00
7A
86
82
C0
38
0C
06
82
C6
BC
ENDCHAR
STARTCHAR scaron
ENCODING 353
SWIDTH 520 0
DWIDTH 8 0
BBX 7 10 -1 0
BITMAP
22
1C
00
3C
42
40
3C
02
42
FC
ENDCHAR
STARTCHAR Tcommaaccent
ENCODING 354
SWIDTH 520 0
DWIDTH 8 0
BBX 7 13 0 -3
BITMAP
FE
92
92
10
10
10
10
10
10
7C
00
18
30
ENDCHAR
STARTCHAR tcommaaccent
ENCODING 355
SWIDTH 520 0
DWIDTH 8 0
BBX 7 13 0 -3
BITMAP
20
20
20
FC
20
20
20
22
22
1C
00
18
30
ENDCHAR
STARTCHAR Tcaron
ENCODING 356
SWIDTH 520 0
DWIDTH 8 0
BBX 7 13 0 0
BITMAP
44
38
00
FE
92
92
10
10
10
10
10
10
7C
ENDCHAR
STARTCHAR tcaron
ENCODING 357
SWIDTH 520 0
DWIDTH 8 0
BBX 7 11 0 0
BITMAP
02
22
22
24
FC
20
20
20
22
22
1C
ENDCHAR
STARTCHAR Tbar
ENCODING 358
SWIDTH 520 0
DWIDTH 8 0
BBX 7 10 0 0
BITMAP
FE
92
92
10
10
7C
10
10
10
7C
ENDCHAR
STARTCHAR tbar
ENCODING 359
SWIDTH 520 0
DWIDTH 8 0
BBX 7 10 0 0
BITMAP
20
20
20
FC
20
20
F8
22
22
1C
ENDCHAR
STARTCHAR Utilde
ENCODING 360
SWIDTH 520 0
DWIDTH 8 0
BBX 6 13 0 0
BITMAP
74
9C
00
84
84
84
84
84
84
84
84
CC
78
ENDCHAR
STARTCHAR utilde
ENCODING 361
SWIDTH 520 0
DWIDTH 8 0
BBX 6 10 0 0
BITMAP
74
9C
00
84
84
84
84
84
8C
74
ENDCHAR
STARTCHAR Umacron
ENCODING 362
SWIDTH 520 0
DWIDTH 8 0
BBX 6 12 0 0
BITMAP
7C
00
84
84
84
84
84
84
84
84
CC
78
ENDCHAR
STARTCHAR umacron
ENCODING 363
SWIDTH 520 0
DWIDTH 8 0
BBX 6 9 0 0
BITMAP
7C
00
84
84
84
84
84
8C
74
ENDCHAR
STARTCHAR Ubreve
ENCODING 364
SWIDTH 520 0
DWIDTH 8 0
BBX 6 13 0 0
BITMAP
48
3C
00
84
84
84
84
84
84
84
84
CC
78
ENDCHAR
STARTCHAR ubreve
ENCODING 365
SWIDTH 520 0
DWIDTH 8 0
BBX 6 10 0 0
BITMAP
48
3C
00
84
84
84
84
84
8C
74
ENDCHAR
STARTCHAR Uring
ENCODING 366
SWIDTH 520 0
DWIDTH 8 0
BBX 6 14 0 0
BITMAP
38
48
38
00
84
84
84
84
84
84
84
84
CC
78
ENDCHAR
STARTCHAR uring
ENCODING 367
SWIDTH 520 0
DWIDTH 8 0
BBX 6 11 0 0
BITMAP
38
48
38
00
84
84
84
84
84
8C
74
ENDCHAR
STARTCHAR Uhungarumlaut
ENCODING 368
SWIDTH 520 0
DWIDTH 8 0
BBX 6 13 0 0
BITMAP
34
28
40
84
84
84
84
84
84
84
84
CC
78
ENDCHAR
STARTCHAR uhungarumlaut
ENCODING 369
SWIDTH 520 0
DWIDTH 8 0
BBX 6 10 0 0
BITMAP
34
28
40
84
84
84
84
84
8C
74
ENDCHAR
STARTCHAR Uogonek
ENCODING 370
SWIDTH 520 0
DWIDTH 9 0
BBX 7 13 0 -3
BITMAP
82
82
82
82
82
82
82
82
C6
7C
10
10
08
ENDCHAR
STARTCHAR uogonek
ENCODING 371
SWIDTH 520 0
DWIDTH 8 0
BBX 7 10 0 -3
BITMAP
84
84
84
84
84
8C
74
04
04
02
ENDCHAR
STARTCHAR Wcircumflex
ENCODING 372
SWIDTH 520 0
DWIDTH 8 0
BBX 7 13 0 0
BITMAP
30
4C
00
82
82
82
92
92
F4
6C
6C
6C
6C
ENDCHAR
STARTCHAR wcircumflex
ENCODING 373
SWIDTH 520 0
DWIDTH 8 0
BBX 7 10 0 0
BITMAP
30
4C
00
92
92
B2
6C
6C
6C
6C
ENDCHAR
STARTCHAR Ycircumflex
ENCODING 374
SWIDTH 520 0
DWIDTH 8 0
BBX 7 13 0 0
BITMAP
30
4C
00
EE
44
6C
28
28
10
10
10
10
7C
ENDCHAR
STARTCHAR ycircumflex
ENCODING 375
SWIDTH 520 0
DWIDTH 8 0
BBX 7 13 0 -3
BITMAP
30
4C
00
82
C6
44
44
28
28
10
10
30
E0
ENDCHAR
STARTCHAR Ydieresis
ENCODING 376
SWIDTH 520 0
DWIDTH 8 0
BBX 7 13 0 0
BITMAP
68
00
00
EE
44
6C
28
28
10
10
10
10
7C
ENDCHAR
STARTCHAR Zacute
ENCODING 377
SWIDTH 520 0
DWIDTH 8 0
BBX 6 13 0 0
BITMAP
08
30
00
FC
88
88
10
10
20
20
44
84
FC
ENDCHAR
STARTCHAR zacute
ENCODING 378
SWIDTH 520 0
DWIDTH 8 0
BBX 6 10 0 0
BITMAP
08
30
00
FC
88
90
20
64
44
FC
ENDCHAR
STARTCHAR Zdotaccent
ENCODING 379
SWIDTH 520 0
DWIDTH 8 0
BBX 6 13 0 0
BITMAP
10
10
00
FC
88
88
10
10
20
20
44
84
FC
ENDCHAR
STARTCHAR zdotaccent
ENCODING 380
SWIDTH 520 0
DWIDTH 8 0
BBX 6 10 0 0
BITMAP
10
10
00
FC
88
90
20
64
44
FC
ENDCHAR
STARTCHAR Zcaron
ENCODING 381
SWIDTH 520 0
DWIDTH 8 0
BBX 6 13 0 0
BITMAP
44
38
00
FC
88
88
10
10
20
20
44
84
FC
ENDCHAR
STARTCHAR zcaron
ENCODING 382
SWIDTH 520 0
DWIDTH 8 0
BBX 6 10 0 0
BITMAP
44
38
00
FC
88
90
20
64
44
FC
ENDCHAR
STARTCHAR longs
ENCODING 383
SWIDTH 520 0
DWIDTH 8 0
BBX 6 10 1 0
BITMAP
1C
20
20
E0
20
20
20
20
20
F8
ENDCHAR
STARTCHAR florin
ENCODING 402
SWIDTH 520 0
DWIDTH 8 0
BBX 7 13 0 -3
BITMAP
0E
10
10
7E
10
10
10
10
10
10
10
10
E0
ENDCHAR
STARTCHAR AEacute
ENCODING 508
SWIDTH 520 0
DWIDTH 8 0
BBX 8 13 -1 0
BITMAP
04
18
00
1F
18
18
28
28
2E
78
48
48
CF
ENDCHAR
STARTCHAR aeacute
ENCODING 509
SWIDTH 520 0
DWIDTH 8 0
BBX 7 10 0 0
BITMAP
08
30
00
6C
92
12
7E
90
92
EC
ENDCHAR
STARTCHAR Oslashacute
ENCODING 510
SWIDTH 520 0
DWIDTH 8 0
BBX 7 13 0 0
BITMAP
08
30
00
3A
46
82
8E
92
A2
C2
82
C4
B8
ENDCHAR
STARTCHAR oslashacute
ENCODING 511
SWIDTH 520 0
DWIDTH 8 0
BBX 7 10 0 0
BITMAP
08
30
00
3A
46
8A
92
A2
C4
B8
ENDCHAR
STARTCHAR Scommaaccent
ENCODING 536
SWIDTH 520 0
DWIDTH 9 0
BBX 7 13 0 -3
BITMAP
7A
86
82
C0
38
0C
06
82
C6
BC
00
18
30
ENDCHAR
STARTCHAR scommaaccent
ENCODING 537
SWIDTH 520 0
DWIDTH 8 0
BBX 7 10 -1 -3
BITMAP
3C
42
40
3C
02
42
FC
00
0C
18
ENDCHAR
STARTCHAR uni021A
ENCODING 538
SWIDTH 520 0
DWIDTH 8 0
BBX 7 13 0 -3
BITMAP
FE
92
92
10
10
10
10
10
10
7C
00
18
30
ENDCHAR
STARTCHAR uni021B
ENCODING 539
SWIDTH 520 0
DWIDTH 8 0
BBX 7 13 0 -3
BITMAP
20
20
20
FC
20
20
20
22
22
1C
00
18
30
ENDCHAR
STARTCHAR circumflex
ENCODING 710
SWIDTH 520 0
DWIDTH 8 0
BBX 5 2 1 8
BITMAP
60
98
ENDCHAR
STARTCHAR caron
ENCODING 711
SWIDTH 520 0
DWIDTH 8 0
BBX 5 2 1 8
BITMAP
88
70
ENDCHAR
STARTCHAR breve
ENCODING 728
SWIDTH 520 0
DWIDTH 8 0
BBX 5 2 1 8
BITMAP
90
78
ENDCHAR
STARTCHAR dotaccent
ENCODING 729
SWIDTH 520 0
DWIDTH 8 0
BBX 1 2 3 8
BITMAP
80
80
ENDCHAR
STARTCHAR ring
ENCODING 730
SWIDTH 520 0
DWIDTH 8 0
BBX 3 3 2 8
BITMAP
E0
A0
E0
ENDCHAR
STARTCHAR ogonek
ENCODING 731
SWIDTH 520 0
DWIDTH 8 0
BBX 2 3 5 -3
BITMAP
80
80
40
ENDCHAR
STARTCHAR tilde
ENCODING 732
SWIDTH 520 0
DWIDTH 8 0
BBX 5 2 1 8
BITMAP
E8
B8
ENDCHAR
STARTCHAR hungarumlaut
ENCODING 733
SWIDTH 520 0
DWIDTH 8 0
BBX 5 2 1 8
BITMAP
68
D0
ENDCHAR
STARTCHAR tonos
ENCODING 900
SWIDTH 520 0
DWIDTH 8 0
BBX 1 4 3 8
BITMAP
80
80
80
80
ENDCHAR
STARTCHAR dieresistonos
ENCODING 901
SWIDTH 520 0
DWIDTH 8 0
BBX 7 3 0 9
BITMAP
10
10
92
ENDCHAR
STARTCHAR Alphatonos
ENCODING 902
SWIDTH 520 0
DWIDTH 8 0
BBX 7 12 0 0
BITMAP
C0
80
90
A8
28
28
44
44
7C
82
82
82
ENDCHAR
STARTCHAR Epsilontonos
ENCODING 904
SWIDTH 520 0
DWIDTH 8 0
BBX 7 12 -1 0
BITMAP
80
80
FE
C0
40
40
40
7C
40
40
40
7E
ENDCHAR
STARTCHAR Etatonos
ENCODING 905
SWIDTH 520 0
DWIDTH 8 0
BBX 7 12 -1 0
BITMAP
80
80
C2
C2
42
42
42
7E
42
42
42
42
ENDCHAR
STARTCHAR Iotatonos
ENCODING 906
SWIDTH 520 0
DWIDTH 8 0
BBX 6 12 0 0
BITMAP
C0
80
FC
90
10
10
10
10
10
10
10
7C
ENDCHAR
STARTCHAR Omicrontonos
ENCODING 908
SWIDTH 520 0
DWIDTH 8 0
BBX 8 12 -1 0
BITMAP
80
80
9C
A2
41
41
41
41
41
41
22
1C
ENDCHAR
STARTCHAR Upsilontonos
ENCODING 910
SWIDTH 520 0
DWIDTH 8 0
BBX 8 12 -1 0
BITMAP
80
80
F7
A2
36
14
14
08
08
08
08
3E
ENDCHAR
STARTCHAR Omegatonos
ENCODING 911
SWIDTH 520 0
DWIDTH 8 0
BBX 8 12 -1 0
BITMAP
80
80
9C
A2
41
41
41
41
41
22
16
77
ENDCHAR
STARTCHAR iotadieresistonos
ENCODING 912
SWIDTH 520 0
DWIDTH 8 0
BBX 7 12 0 0
BITMAP
10
10
92
00
00
70
10
10
10
10
10
1C
ENDCHAR
STARTCHAR Alpha
ENCODING 913
SWIDTH 520 0
DWIDTH 8 0
BBX 7 10 0 0
BITMAP
10
28
28
28
44
44
7C
82
82
82
ENDCHAR
STARTCHAR Beta
ENCODING 914
SWIDTH 520 0
DWIDTH 9 0
BBX 7 10 0 0
BITMAP
FC
82
82
82
FC
86
82
82
86
FC
ENDCHAR
STARTCHAR Gamma
ENCODING 915
SWIDTH 520 0
DWIDTH 8 0
BBX 7 10 0 0
BITMAP
FE
80
80
80
80
80
80
80
80
80
ENDCHAR
STARTCHAR uni0394
ENCODING 916
SWIDTH 520 0
DWIDTH 8 0
BBX 7 10 0 0
BITMAP
10
28
28
28
44
44
44
82
82
FE
ENDCHAR
STARTCHAR Epsilon
ENCODING 917
SWIDTH 520 0
DWIDTH 8 0
BBX 6 10 0 0
BITMAP
FC
80
80
80
80
F8
80
80
80
FC
ENDCHAR
STARTCHAR Zeta
ENCODING 918
SWIDTH 520 0
DWIDTH 8 0
BBX 6 10 0 0
BITMAP
FC
88
88
10
10
20
20
44
84
FC
ENDCHAR
STARTCHAR Eta
ENCODING 919
SWIDTH 520 0
DWIDTH 8 0
BBX 6 10 0 0
BITMAP
84
84
84
84
84
FC
84
84
84
84
ENDCHAR
STARTCHAR Theta
ENCODING 920
SWIDTH 520 0
DWIDTH 8 0
BBX 7 10 0 0
BITMAP
38
44
82
82
82
BA
82
82
44
38
ENDCHAR
STARTCHAR Iota
ENCODING 921
SWIDTH 520 0
DWIDTH 8 0
BBX 5 10 1 0
BITMAP
F8
20
20
20
20
20
20
20
20
F8
ENDCHAR
STARTCHAR Kappa
ENCODING 922
SWIDTH 520 0
DWIDTH 8 0
BBX 7 10 0 0
BITMAP
86
88
90
A0
E0
E0
90
88
88
86
ENDCHAR
STARTCHAR Lambda
ENCODING 923
SWIDTH 520 0
DWIDTH 8 0
BBX 7 10 0 0
BITMAP
10
28
28
28
44
44
44
82
82
82
ENDCHAR
STARTCHAR Mu
ENCODING 924
SWIDTH 520 0
DWIDTH 8 0
BBX 6 10 0 0
BITMAP
84
CC
CC
D4
B4
B4
A4
84
84
84
ENDCHAR
STARTCHAR Nu
ENCODING 925
SWIDTH 520 0
DWIDTH 8 0
BBX 6 10 0 0
BITMAP
C4
C4
E4
A4
A4
94
94
8C
8C
84
ENDCHAR
STARTCHAR Xi
ENCODING 926
SWIDTH 520 0
DWIDTH 8 0
BBX 7 10 0 0
BITMAP
FE
82
00
00
00
38
00
00
82
FE
ENDCHAR
STARTCHAR Omicron
ENCODING 927
SWIDTH 520 0
DWIDTH 8 0
BBX 7 10 0 0
BITMAP
38
44
82
82
82
82
82
82
44
38
ENDCHAR
STARTCHAR Pi
ENCODING 928
SWIDTH 520 0
DWIDTH 8 0
BBX 6 10 0 0
BITMAP
FC
84
84
84
84
84
84
84
84
84
ENDCHAR
STARTCHAR Rho
ENCODING 929
SWIDTH 520 0
DWIDTH 8 0
BBX 7 10 0 0
BITMAP
FC
82
82
82
82
FC
80
80
80
80
ENDCHAR
STARTCHAR Sigma
ENCODING 931
SWIDTH 520 0
DWIDTH 9 0
BBX 6 10 1 0
BITMAP
FC
84
44
40
20
20
40
44
84
FC
ENDCHAR
STARTCHAR Tau
ENCODING 932
SWIDTH 520 0
DWIDTH 8 0
BBX 7 10 0 0
BITMAP
FE
92
92
10
10
10
10
10
10
7C
ENDCHAR
STARTCHAR Upsilon
ENCODING 933
SWIDTH 520 0
DWIDTH 8 0
BBX 7 10 0 0
BITMAP
EE
44
6C
28
28
10
10
10
10
7C
ENDCHAR
STARTCHAR Phi
ENCODING 934
SWIDTH 520 0
DWIDTH 8 0
BBX 7 10 0 0
BITMAP
10
38
7C
92
92
92
92
54
38
10
ENDCHAR
STARTCHAR Chi
ENCODING 935
SWIDTH 520 0
DWIDTH 8 0
BBX 7 10 0 0
BITMAP
EE
44
28
28
10
10
28
28
44
EE
ENDCHAR
STARTCHAR Psi
ENCODING 936
SWIDTH 520 0
DWIDTH 8 0
BBX 7 10 0 0
BITMAP
92
92
92
92
92
92
7C
10
10
10
ENDCHAR
STARTCHAR uni03A9
ENCODING 937
SWIDTH 520 0
DWIDTH 8 0
BBX 7 10 0 0
BITMAP
38
44
82
82
82
82
82
44
2C
EE
ENDCHAR
STARTCHAR Iotadieresis
ENCODING 938
SWIDTH 520 0
DWIDTH 8 0
BBX 5 13 1 0
BITMAP
D0
00
00
F8
20
20
20
20
20
20
20
20
F8
ENDCHAR
STARTCHAR Upsilondieresis
ENCODING 939
SWIDTH 520 0
DWIDTH 8 0
BBX 7 13 0 0
BITMAP
68
00
00
EE
44
6C
28
28
10
10
10
10
7C
ENDCHAR
STARTCHAR alphatonos
ENCODING 940
SWIDTH 520 0
DWIDTH 8 0
BBX 7 12 0 0
BITMAP
10
10
10
10
00
72
8A
8C
84
8C
8A
72
ENDCHAR
STARTCHAR epsilontonos
ENCODING 941
SWIDTH 520 0
DWIDTH 8 0
BBX 6 12 0 0
BITMAP
10
10
10
10
00
78
84
80
70
80
84
78
ENDCHAR
STARTCHAR etatonos
ENCODING 942
SWIDTH 520 0
DWIDTH 8 0
BBX 6 15 0 -3
BITMAP
10
10
10
10
00
F8
44
44
44
44
44
44
04
04
04
ENDCHAR
STARTCHAR iotatonos
ENCODING 943
SWIDTH 520 0
DWIDTH 8 0
BBX 5 12 1 0
BITMAP
20
20
20
20
00
E0
20
20
20
20
20
38
ENDCHAR
STARTCHAR upsilondieresistonos
ENCODING 944
SWIDTH 520 0
DWIDTH 8 0
BBX 7 12 0 0
BITMAP
10
10
92
00
00
82
82
82
82
82
C4
78
ENDCHAR
STARTCHAR alpha
ENCODING 945
SWIDTH 520 0
DWIDTH 8 0
BBX 7 7 0 0
BITMAP
72
8A
8C
84
8C
8A
72
ENDCHAR
STARTCHAR beta
ENCODING 946
SWIDTH 520 0
DWIDTH 9 0
BBX 8 13 0 -3
BITMAP
3C
C2
82
82
9C
83
81
81
83
FC
80
80
80
ENDCHAR
STARTCHAR gamma
ENCODING 947
SWIDTH 520 0
DWIDTH 8 0
BBX 7 10 0 -3
BITMAP
82
44
44
44
24
28
18
10
10
10
ENDCHAR
STARTCHAR delta
ENCODING 948
SWIDTH 520 0
DWIDTH 9 0
BBX 7 10 0 0
BITMAP
78
40
40
30
6C
82
82
82
86
7C
ENDCHAR
STARTCHAR epsilon
ENCODING 949
SWIDTH 520 0
DWIDTH 8 0
BBX 6 7 0 0
BITMAP
78
84
80
70
80
84
78
ENDCHAR
STARTCHAR zeta
ENCODING 950
SWIDTH 520 0
DWIDTH 8 0
BBX 6 13 0 -3
BITMAP
7C
18
20
40
80
80
80
80
40
38
04
04
08
ENDCHAR
STARTCHAR eta
ENCODING 951
SWIDTH 520 0
DWIDTH 8 0
BBX 6 10 0 -3
BITMAP
F8
44
44
44
44
44
44
04
04
04
ENDCHAR
STARTCHAR theta
ENCODING 952
SWIDTH 520 0
DWIDTH 8 0
BBX 6 10 0 0
BITMAP
78
48
84
84
84
FC
84
84
48
78
ENDCHAR
STARTCHAR iota
ENCODING 953
SWIDTH 520 0
DWIDTH 8 0
BBX 5 7 1 0
BITMAP
E0
20
20
20
20
20
38
ENDCHAR
STARTCHAR kappa
ENCODING 954
SWIDTH 520 0
DWIDTH 8 0
BBX 7 7 0 0
BITMAP
8C
98
B0
E0
D0
88
86
ENDCHAR
STARTCHAR lambda
ENCODING 955
SWIDTH 520 0
DWIDTH 8 0
BBX 7 10 0 0
BITMAP
E0
30
10
10
28
28
44
44
C6
82
ENDCHAR
STARTCHAR uni03BC
ENCODING 956
SWIDTH 520 0
DWIDTH 8 0
BBX 6 10 0 -3
BITMAP
88
88
88
88
88
88
FC
80
80
80
ENDCHAR
STARTCHAR nu
ENCODING 957
SWIDTH 520 0
DWIDTH 8 0
BBX 7 7 0 0
BITMAP
86
44
44
64
28
28
10
ENDCHAR
STARTCHAR xi
ENCODING 958
SWIDTH 520 0
DWIDTH 9 0
BBX 7 13 0 -3
BITMAP
78
80
80
80
78
C0
80
80
C0
3C
02
02
04
ENDCHAR
STARTCHAR omicron
ENCODING 959
SWIDTH 520 0
DWIDTH 8 0
BBX 7 7 0 0
BITMAP
38
44
82
82
82
44
38
ENDCHAR
STARTCHAR pi
ENCODING 960
SWIDTH 520 0
DWIDTH 8 0
BBX 7 7 0 0
BITMAP
FE
28
28
28
28
28
2E
ENDCHAR
STARTCHAR rho
ENCODING 961
SWIDTH 520 0
DWIDTH 8 0
BBX 7 10 0 -3
BITMAP
38
44
82
82
82
84
F8
80
80
80
ENDCHAR
STARTCHAR sigma1
ENCODING 962
SWIDTH 520 0
DWIDTH 8 0
BBX 6 10 0 -3
BITMAP
38
44
80
80
80
C0
38
04
04
08
ENDCHAR
STARTCHAR sigma
ENCODING 963
SWIDTH 520 0
DWIDTH 8 0
BBX 7 7 0 0
BITMAP
7E
C8
84
84
84
84
78
ENDCHAR
STARTCHAR tau
ENCODING 964
SWIDTH 520 0
DWIDTH 8 0
BBX 7 7 0 0
BITMAP
FE
10
10
10
10
10
1C
ENDCHAR
STARTCHAR upsilon
ENCODING 965
SWIDTH 520 0
DWIDTH 8 0
BBX 7 7 0 0
BITMAP
82
82
82
82
82
C4
78
ENDCHAR
STARTCHAR phi
ENCODING 966
SWIDTH 520 0
DWIDTH 8 0
BBX 7 10 0 -3
BITMAP
9C
D2
92
92
92
92
7C
10
10
10
ENDCHAR
STARTCHAR chi
ENCODING 967
SWIDTH 520 0
DWIDTH 8 0
BBX 7 10 0 -3
BITMAP
86
44
4C
28
10
10
28
6C
44
82
ENDCHAR
STARTCHAR psi
ENCODING 968
SWIDTH 520 0
DWIDTH 8 0
BBX 7 11 0 -3
BITMAP
10
92
92
92
92
92
D6
7C
10
10
10
ENDCHAR
STARTCHAR omega
ENCODING 969
SWIDTH 520 0
DWIDTH 8 0
BBX 7 7 0 0
BITMAP
82
92
92
92
92
92
6C
ENDCHAR
STARTCHAR iotadieresis
ENCODING 970
SWIDTH 520 0
DWIDTH 8 0
BBX 5 10 1 0
BITMAP
D0
00
00
E0
20
20
20
20
20
38
ENDCHAR
STARTCHAR upsilondieresis
ENCODING 971
SWIDTH 520 0
DWIDTH 8 0
BBX 7 10 0 0
BITMAP
68
00
00
82
82
82
82
82
C4
78
ENDCHAR
STARTCHAR omicrontonos
ENCODING 972
SWIDTH 520 0
DWIDTH 8 0
BBX 7 12 0 0
BITMAP
10
10
10
10
00
38
44
82
82
82
44
38
ENDCHAR
STARTCHAR upsilontonos
ENCODING 973
SWIDTH 520 0
DWIDTH 8 0
BBX 7 12 0 0
BITMAP
10
10
10
10
00
82
82
82
82
82
C4
78
ENDCHAR
STARTCHAR omegatonos
ENCODING 974
SWIDTH 520 0
DWIDTH 8 0
BBX 7 12 0 0
BITMAP
10
10
10
10
00
82
92
92
92
92
92
6C
ENDCHAR
STARTCHAR afii10023
ENCODING 1025
SWIDTH 520 0
DWIDTH 8 0
BBX 6 13 0 0
BITMAP
68
00
00
FC
80
80
80
80
F8
80
80
80
FC
ENDCHAR
STARTCHAR afii10051
ENCODING 1026
SWIDTH 520 0
DWIDTH 8 0
BBX 7 10 -1 0
BITMAP
E0
40
40
5C
62
42
42
42
42
4E
ENDCHAR
STARTCHAR afii10052
ENCODING 1027
SWIDTH 520 0
DWIDTH 8 0
BBX 7 13 0 0
BITMAP
08
30
00
FE
80
80
80
80
80
80
80
80
80
ENDCHAR
STARTCHAR afii10053
ENCODING 1028
SWIDTH 520 0
DWIDTH 8 0
BBX 7 10 0 0
BITMAP
3A
46
82
80
80
F8
80
82
44
38
ENDCHAR
STARTCHAR afii10054
ENCODING 1029
SWIDTH 520 0
DWIDTH 9 0
BBX 7 10 0 0
BITMAP
7A
86
82
C0
70
0C
06
82
C6
BC
ENDCHAR
STARTCHAR afii10055
ENCODING 1030
SWIDTH 520 0
DWIDTH 8 0
BBX 5 10 1 0
BITMAP
F8
20
20
20
20
20
20
20
20
F8
ENDCHAR
STARTCHAR afii10056
ENCODING 1031
SWIDTH 520 0
DWIDTH 8 0
BBX 5 13 1 0
BITMAP
D0
00
00
F8
20
20
20
20
20
20
20
20
F8
ENDCHAR
STARTCHAR afii10057
ENCODING 1032
SWIDTH 520 0
DWIDTH 8 0
BBX 7 10 0 0
BITMAP
02
02
02
02
02
02
02
82
46
3C
ENDCHAR
STARTCHAR afii10058
ENCODING 1033
SWIDTH 520 0
DWIDTH 8 0
BBX 8 10 -1 0
BITMAP
78
48
48
48
4E
49
49
49
49
CE
ENDCHAR
STARTCHAR afii10059
ENCODING 1034
SWIDTH 520 0
DWIDTH 8 0
BBX 7 10 0 0
BITMAP
90
90
90
90
FC
92
92
92
92
9C
ENDCHAR
STARTCHAR afii10060
ENCODING 1035
SWIDTH 520 0
DWIDTH 8 0
BBX 7 10 -1 0
BITMAP
E0
40
40
5C
62
42
42
42
42
42
ENDCHAR
STARTCHAR afii10061
ENCODING 1036
SWIDTH 520 0
DWIDTH 8 0
BBX 7 13 0 0
BITMAP
08
30
00
86
88
90
A0
E0
E0
90
88
88
86
ENDCHAR
STARTCHAR afii10062
ENCODING 1038
SWIDTH 520 0
DWIDTH 8 0
BBX 7 13 0 0
BITMAP
48
3C
00
82
C6
44
44
28
28
10
10
30
E0
ENDCHAR
STARTCHAR afii10145
ENCODING 1039
SWIDTH 520 0
DWIDTH 8 0
BBX 7 12 0 -2
BITMAP
82
82
82
82
82
82
82
82
82
FE
10
10
ENDCHAR
STARTCHAR afii10017
ENCODING 1040
SWIDTH 520 0
DWIDTH 8 0
BBX 7 10 0 0
BITMAP
10
28
28
28
44
44
7C
82
82
82
ENDCHAR
STARTCHAR afii10018
ENCODING 1041
SWIDTH 520 0
DWIDTH 8 0
BBX 7 10 0 0
BITMAP
FC
80
80
80
FC
86
82
82
82
FC
ENDCHAR
STARTCHAR afii10019
ENCODING 1042
SWIDTH 520 0
DWIDTH 9 0
BBX 7 10 0 0
BITMAP
FC
82
82
82
FC
86
82
82
86
FC
ENDCHAR
STARTCHAR afii10020
ENCODING 1043
SWIDTH 520 0
DWIDTH 8 0
BBX 7 10 0 0
BITMAP
FE
80
80
80
80
80
80
80
80
80
ENDCHAR
STARTCHAR afii10021
ENCODING 1044
SWIDTH 520 0
DWIDTH 8 0
BBX 7 12 0 -2
BITMAP
3C
24
24
24
24
24
24
44
C4
FE
82
82
ENDCHAR
STARTCHAR afii10022
ENCODING 1045
SWIDTH 520 0
DWIDTH 8 0
BBX 6 10 0 0
BITMAP
FC
80
80
80
80
F8
80
80
80
FC
ENDCHAR
STARTCHAR afii10024
ENCODING 1046
SWIDTH 520 0
DWIDTH 8 0
BBX 7 10 0 0
BITMAP
92
92
54
7C
38
54
54
54
92
92
ENDCHAR
STARTCHAR afii10025
ENCODING 1047
SWIDTH 520 0
DWIDTH 9 0
BBX 7 10 0 0
BITMAP
BC
C2
82
02
0C
06
02
82
C6
3C
ENDCHAR
STARTCHAR afii10026
ENCODING 1048
SWIDTH 520 0
DWIDTH 8 0
BBX 6 10 0 0
BITMAP
8C
8C
9C
94
94
A4
A4
C4
C4
84
ENDCHAR
STARTCHAR afii10027
ENCODING 1049
SWIDTH 520 0
DWIDTH 8 0
BBX 6 13 0 0
BITMAP
48
3C
00
8C
8C
9C
94
94
A4
A4
C4
C4
84
ENDCHAR
STARTCHAR afii10028
ENCODING 1050
SWIDTH 520 0
DWIDTH 8 0
BBX 7 10 0 0
BITMAP
86
88
90
A0
E0
E0
90
88
88
86
ENDCHAR
STARTCHAR afii10029
ENCODING 1051
SWIDTH 520 0
DWIDTH 8 0
BBX 7 10 -1 0
BITMAP
3E
22
22
22
22
22
22
22
22
E2
ENDCHAR
STARTCHAR afii10030
ENCODING 1052
SWIDTH 520 0
DWIDTH 8 0
BBX 6 10 0 0
BITMAP
84
CC
CC
D4
B4
B4
A4
84
84
84
ENDCHAR
STARTCHAR afii10031
ENCODING 1053
SWIDTH 520 0
DWIDTH 8 0
BBX 6 10 0 0
BITMAP
84
84
84
84
84
FC
84
84
84
84
ENDCHAR
STARTCHAR afii10032
ENCODING 1054
SWIDTH 520 0
DWIDTH 8 0
BBX 7 10 0 0
BITMAP
38
44
82
82
82
82
82
82
44
38
ENDCHAR
STARTCHAR afii10033
ENCODING 1055
SWIDTH 520 0
DWIDTH 8 0
BBX 6 10 0 0
BITMAP
FC
84
84
84
84
84
84
84
84
84
ENDCHAR
STARTCHAR afii10034
ENCODING 1056
SWIDTH 520 0
DWIDTH 8 0
BBX 7 10 0 0
BITMAP
FC
82
82
82
82
FC
80
80
80
80
ENDCHAR
STARTCHAR afii10035
ENCODING 1057
SWIDTH 520 0
DWIDTH 8 0
BBX 7 10 0 0
BITMAP
3A
46
82
80
80
80
80
82
44
38
ENDCHAR
STARTCHAR afii10036
ENCODING 1058
SWIDTH 520 0
DWIDTH 8 0
BBX 7 10 0 0
BITMAP
FE
92
92
10
10
10
10
10
10
7C
ENDCHAR
STARTCHAR afii10037
ENCODING 1059
SWIDTH 520 0
DWIDTH 8 0
BBX 7 10 0 0
BITMAP
82
C6
44
44
28
28
10
10
30
E0
ENDCHAR
STARTCHAR afii10038
ENCODING 1060
SWIDTH 520 0
DWIDTH 8 0
BBX 7 10 0 0
BITMAP
10
38
7C
92
92
92
92
54
38
10
ENDCHAR
STARTCHAR afii10039
ENCODING 1061
SWIDTH 520 0
DWIDTH 8 0
BBX 7 10 0 0
BITMAP
EE
44
28
28
10
10
28
28
44
EE
ENDCHAR
STARTCHAR afii10040
ENCODING 1062
SWIDTH 520 0
DWIDTH 9 0
BBX 8 12 0 -2
BITMAP
82
82
82
82
82
82
82
82
82
FF
01
01
ENDCHAR
STARTCHAR afii10041
ENCODING 1063
SWIDTH 520 0
DWIDTH 8 0
BBX 6 10 0 0
BITMAP
84
84
84
84
84
8C
74
04
04
04
ENDCHAR
STARTCHAR afii10042
ENCODING 1064
SWIDTH 520 0
DWIDTH 8 0
BBX 7 10 0 0
BITMAP
92
92
92
92
92
92
92
92
92
FE
ENDCHAR
STARTCHAR afii10043
ENCODING 1065
SWIDTH 520 0
DWIDTH 8 0
BBX 8 12 0 -2
BITMAP
92
92
92
92
92
92
92
92
92
FF
01
01
ENDCHAR
STARTCHAR afii10044
ENCODING 1066
SWIDTH 520 0
DWIDTH 8 0
BBX 7 10 0 0
BITMAP
E0
20
20
20
3C
22
22
22
22
3C
ENDCHAR
STARTCHAR afii10045
ENCODING 1067
SWIDTH 520 0
DWIDTH 8 0
BBX 7 10 0 0
BITMAP
82
82
82
82
F2
8A
8A
8A
8A
F2
ENDCHAR
STARTCHAR afii10046
ENCODING 1068
SWIDTH 520 0
DWIDTH 8 0
BBX 7 10 0 0
BITMAP
80
80
80
80
FC
86
82
82
82
FC
ENDCHAR
STARTCHAR afii10047
ENCODING 1069
SWIDTH 520 0
DWIDTH 8 0
BBX 7 10 0 0
BITMAP
B8
C4
82
02
02
3E
02
82
44
38
ENDCHAR
STARTCHAR afii10048
ENCODING 1070
SWIDTH 520 0
DWIDTH 8 0
BBX 7 10 0 0
BITMAP
8C
92
92
92
92
F2
92
92
92
8C
ENDCHAR
STARTCHAR afii10049
ENCODING 1071
SWIDTH 520 0
DWIDTH 8 0
BBX 6 10 0 0
BITMAP
7C
84
84
84
84
7C
24
24
44
84
ENDCHAR
STARTCHAR afii10065
ENCODING 1072
SWIDTH 520 0
DWIDTH 8 0
BBX 6 7 0 0
BITMAP
78
84
04
7C
84
8C
74
ENDCHAR
STARTCHAR afii10066
ENCODING 1073
SWIDTH 520 0
DWIDTH 8 0
BBX 7 10 0 0
BITMAP
3E
40
80
B8
C4
82
82
82
44
38
ENDCHAR
STARTCHAR afii10067
ENCODING 1074
SWIDTH 520 0
DWIDTH 8 0
BBX 8 7 0 0
BITMAP
FC
82
82
FC
83
81
FE
ENDCHAR
STARTCHAR afii10068
ENCODING 1075
SWIDTH 520 0
DWIDTH 8 0
BBX 7 7 0 0
BITMAP
FE
80
80
80
80
80
80
ENDCHAR
STARTCHAR afii10069
ENCODING 1076
SWIDTH 520 0
DWIDTH 8 0
BBX 7 9 0 -2
BITMAP
3C
24
24
24
64
44
FE
82
82
ENDCHAR
STARTCHAR afii10070
ENCODING 1077
SWIDTH 520 0
DWIDTH 8 0
BBX 7 7 0 0
BITMAP
38
44
82
FE
80
46
3C
ENDCHAR
STARTCHAR afii10072
ENCODING 1078
SWIDTH 520 0
DWIDTH 8 0
BBX 7 7 0 0
BITMAP
92
54
38
38
54
54
92
ENDCHAR
STARTCHAR afii10073
ENCODING 1079
SWIDTH 520 0
DWIDTH 9 0
BBX 7 7 0 0
BITMAP
3C
42
02
1C
02
82
7C
ENDCHAR
STARTCHAR afii10074
ENCODING 1080
SWIDTH 520 0
DWIDTH 8 0
BBX 6 7 0 0
BITMAP
8C
8C
94
A4
A4
C4
C4
ENDCHAR
STARTCHAR afii10075
ENCODING 1081
SWIDTH 520 0
DWIDTH 8 0
BBX 6 10 0 0
BITMAP
48
3C
00
8C
8C
94
A4
A4
C4
C4
ENDCHAR
STARTCHAR afii10076
ENCODING 1082
SWIDTH 520 0
DWIDTH 8 0
BBX 7 7 0 0
BITMAP
8C
98
B0
E0
D0
88
86
ENDCHAR
STARTCHAR afii10077
ENCODING 1083
SWIDTH 520 0
DWIDTH 8 0
BBX 7 7 -1 0
BITMAP
3E
22
22
22
22
22
E2
ENDCHAR
STARTCHAR afii10078
ENCODING 1084
SWIDTH 520 0
DWIDTH 8 0
BBX 6 7 0 0
BITMAP
CC
CC
CC
B4
B4
84
84
ENDCHAR
STARTCHAR afii10079
ENCODING 1085
SWIDTH 520 0
DWIDTH 8 0
BBX 6 7 0 0
BITMAP
84
84
84
FC
84
84
84
ENDCHAR
STARTCHAR afii10080
ENCODING 1086
SWIDTH 520 0
DWIDTH 8 0
BBX 7 7 0 0
BITMAP
38
44
82
82
82
44
38
ENDCHAR
STARTCHAR afii10081
ENCODING 1087
SWIDTH 520 0
DWIDTH 8 0
BBX 6 7 0 0
BITMAP
FC
84
84
84
84
84
84
ENDCHAR
STARTCHAR afii10082
ENCODING 1088
SWIDTH 520 0
DWIDTH 8 0
BBX 7 10 0 -3
BITMAP
B8
C4
82
82
82
84
F8
80
80
80
ENDCHAR
STARTCHAR afii10083
ENCODING 1089
SWIDTH 520 0
DWIDTH 8 0
BBX 6 7 0 0
BITMAP
7C
8C
84
80
80
44
78
ENDCHAR
STARTCHAR afii10084
ENCODING 1090
SWIDTH 520 0
DWIDTH 8 0
BBX 7 7 0 0
BITMAP
FE
92
92
10
10
10
7C
ENDCHAR
STARTCHAR afii10085
ENCODING 1091
SWIDTH 520 0
DWIDTH 8 0
BBX 7 10 0 -3
BITMAP
82
C6
44
44
28
28
10
10
30
E0
ENDCHAR
STARTCHAR afii10086
ENCODING 1092
SWIDTH 520 0
DWIDTH 8 0
BBX 7 13 0 -3
BITMAP
10
10
10
7C
92
92
92
92
92
7C
10
10
10
ENDCHAR
STARTCHAR afii10087
ENCODING 1093
SWIDTH 520 0
DWIDTH 8 0
BBX 7 7 0 0
BITMAP
EE
6C
28
10
28
4C
EE
ENDCHAR
STARTCHAR afii10088
ENCODING 1094
SWIDTH 520 0
DWIDTH 9 0
BBX 8 9 0 -2
BITMAP
82
82
82
82
82
82
FF
01
01
ENDCHAR
STARTCHAR afii10089
ENCODING 1095
SWIDTH 520 0
DWIDTH 8 0
BBX 6 7 0 0
BITMAP
84
84
84
8C
74
04
04
ENDCHAR
STARTCHAR afii10090
ENCODING 1096
SWIDTH 520 0
DWIDTH 8 0
BBX 7 7 0 0
BITMAP
92
92
92
92
92
92
FE
ENDCHAR
STARTCHAR afii10091
ENCODING 1097
SWIDTH 520 0
DWIDTH 8 0
BBX 8 9 0 -2
BITMAP
92
92
92
92
92
92
FF
01
01
ENDCHAR
STARTCHAR afii10092
ENCODING 1098
SWIDTH 520 0
DWIDTH 8 0
BBX 7 7 0 0
BITMAP
E0
20
20
3C
22
22
3C
ENDCHAR
STARTCHAR afii10093
ENCODING 1099
SWIDTH 520 0
DWIDTH 8 0
BBX 7 7 0 0
BITMAP
82
82
82
F2
8A
8A
F2
ENDCHAR
STARTCHAR afii10094
ENCODING 1100
SWIDTH 520 0
DWIDTH 8 0
BBX 7 7 0 0
BITMAP
80
80
80
FC
82
82
FC
ENDCHAR
STARTCHAR afii10095
ENCODING 1101
SWIDTH 520 0
DWIDTH 8 0
BBX 7 7 0 0
BITMAP
78
84
02
3E
02
84
78
ENDCHAR
STARTCHAR afii10096
ENCODING 1102
SWIDTH 520 0
DWIDTH 8 0
BBX 7 7 0 0
BITMAP
8C
92
92
F2
92
92
8C
ENDCHAR
STARTCHAR afii10097
ENCODING 1103
SWIDTH 520 0
DWIDTH 8 0
BBX 6 7 0 0
BITMAP
7C
84
84
7C
24
44
C4
ENDCHAR
STARTCHAR afii10071
ENCODING 1105
SWIDTH 520 0
DWIDTH 8 0
BBX 7 10 0 0
BITMAP
68
00
00
38
44
82
FE
80
46
3C
ENDCHAR
STARTCHAR afii10099
ENCODING 1106
SWIDTH 520 0
DWIDTH 8 0
BBX 7 13 -1 -3
BITMAP
40
40
E0
5C
62
42
42
42
42
42
02
02
0E
ENDCHAR
STARTCHAR afii10100
ENCODING 1107
SWIDTH 520 0
DWIDTH 8 0
BBX 7 10 0 0
BITMAP
08
30
00
FE
80
80
80
80
80
80
ENDCHAR
STARTCHAR afii10101
ENCODING 1108
SWIDTH 520 0
DWIDTH 8 0
BBX 7 7 0 0
BITMAP
3C
42
80
F8
80
42
3C
ENDCHAR
STARTCHAR afii10102
ENCODING 1109
SWIDTH 520 0
DWIDTH 8 0
BBX 7 7 -1 0
BITMAP
3C
42
40
3C
02
42
FC
ENDCHAR
STARTCHAR afii10103
ENCODING 1110
SWIDTH 520 0
DWIDTH 8 0
BBX 5 10 1 0
BITMAP
20
00
00
E0
20
20
20
20
20
F8
ENDCHAR
STARTCHAR afii10104
ENCODING 1111
SWIDTH 520 0
DWIDTH 8 0
BBX 5 10 1 0
BITMAP
D0
00
00
E0
20
20
20
20
20
F8
ENDCHAR
STARTCHAR afii10105
ENCODING 1112
SWIDTH 520 0
DWIDTH 8 0
BBX 5 13 0 -3
BITMAP
08
00
00
38
08
08
08
08
08
08
08
88
70
ENDCHAR
STARTCHAR afii10106
ENCODING 1113
SWIDTH 520 0
DWIDTH 8 0
BBX 8 7 -1 0
BITMAP
78
48
48
4E
49
49
CE
ENDCHAR
STARTCHAR afii10107
ENCODING 1114
SWIDTH 520 0
DWIDTH 8 0
BBX 7 7 0 0
BITMAP
90
90
90
FC
92
92
9C
ENDCHAR
STARTCHAR afii10108
ENCODING 1115
SWIDTH 520 0
DWIDTH 8 0
BBX 7 10 -1 0
BITMAP
40
40
E0
5C
62
42
42
42
42
42
ENDCHAR
STARTCHAR afii10109
ENCODING 1116
SWIDTH 520 0
DWIDTH 8 0
BBX 7 10 0 0
BITMAP
08
30
00
8C
98
B0
E0
D0
88
86
ENDCHAR
STARTCHAR afii10110
ENCODING 1118
SWIDTH 520 0
DWIDTH 8 0
BBX 7 13 0 -3
BITMAP
48
3C
00
82
C6
44
44
28
28
10
10
30
E0
ENDCHAR
STARTCHAR afii10193
ENCODING 1119
SWIDTH 520 0
DWIDTH 8 0
BBX 7 9 0 -2
BITMAP
82
82
82
82
82
82
FE
10
10
ENDCHAR
STARTCHAR afii10050
ENCODING 1168
SWIDTH 520 0
DWIDTH 8 0
BBX 7 11 0 0
BITMAP
02
FE
80
80
80
80
80
80
80
80
80
ENDCHAR
STARTCHAR afii10098
ENCODING 1169
SWIDTH 520 0
DWIDTH 8 0
BBX 7 8 0 0
BITMAP
02
FE
80
80
80
80
80
80
ENDCHAR
STARTCHAR uni1E02
ENCODING 7682
SWIDTH 520 0
DWIDTH 9 0
BBX 7 13 0 0
BITMAP
10
10
00
FC
82
82
82
FC
86
82
82
86
FC
ENDCHAR
STARTCHAR uni1E03
ENCODING 7683
SWIDTH 520 0
DWIDTH 8 0
BBX 7 13 0 0
BITMAP
10
10
00
80
80
80
B8
C4
82
82
82
84
F8
ENDCHAR
STARTCHAR uni1E0A
ENCODING 7690
SWIDTH 520 0
DWIDTH 8 0
BBX 7 13 0 0
BITMAP
10
10
00
F8
84
82
82
82
82
82
82
84
F8
ENDCHAR
STARTCHAR uni1E0B
ENCODING 7691
SWIDTH 520 0
DWIDTH 8 0
BBX 6 13 0 0
BITMAP
10
10
00
0C
04
04
7C
84
84
84
84
84
7C
ENDCHAR
STARTCHAR uni1E1E
ENCODING 7710
SWIDTH 520 0
DWIDTH 8 0
BBX 6 13 0 0
BITMAP
10
10
00
FC
80
80
80
80
F8
80
80
80
80
ENDCHAR
STARTCHAR uni1E1F
ENCODING 7711
SWIDTH 520 0
DWIDTH 8 0
BBX 6 13 1 0
BITMAP
20
20
00
1C
20
20
FC
20
20
20
20
20
F8
ENDCHAR
STARTCHAR uni1E40
ENCODING 7744
SWIDTH 520 0
DWIDTH 8 0
BBX 6 13 0 0
BITMAP
10
10
00
84
CC
CC
D4
B4
B4
A4
84
84
84
ENDCHAR
STARTCHAR uni1E41
ENCODING 7745
SWIDTH 520 0
DWIDTH 8 0
BBX 7 10 0 0
BITMAP
10
10
00
FE
92
92
92
92
92
92
ENDCHAR
STARTCHAR uni1E56
ENCODING 7766
SWIDTH 520 0
DWIDTH 8 0
BBX 7 13 0 0
BITMAP
10
10
00
FC
82
82
82
82
FC
80
80
80
80
ENDCHAR
STARTCHAR uni1E57
ENCODING 7767
SWIDTH 520 0
DWIDTH 8 0
BBX 7 13 0 -3
BITMAP
10
10
00
B8
C4
82
82
82
84
F8
80
80
80
ENDCHAR
STARTCHAR uni1E60
ENCODING 7776
SWIDTH 520 0
DWIDTH 9 0
BBX 7 13 0 0
BITMAP
10
10
00
7A
86
82
C0
38
0C
06
82
C6
BC
ENDCHAR
STARTCHAR uni1E61
ENCODING 7777
SWIDTH 520 0
DWIDTH 8 0
BBX 7 10 -1 0
BITMAP
08
08
00
3C
42
40
3C
02
42
FC
ENDCHAR
STARTCHAR uni1E6A
ENCODING 7786
SWIDTH 520 0
DWIDTH 8 0
BBX 7 13 0 0
BITMAP
10
10
00
FE
92
92
10
10
10
10
10
10
7C
ENDCHAR
STARTCHAR uni1E6B
ENCODING 7787
SWIDTH 520 0
DWIDTH 8 0
BBX 7 13 0 0
BITMAP
10
10
00
20
20
20
FC
20
20
20
22
22
1C
ENDCHAR
STARTCHAR Wgrave
ENCODING 7808
SWIDTH 520 0
DWIDTH 8 0
BBX 7 13 0 0
BITMAP
20
18
00
82
82
82
92
92
F4
6C
6C
6C
6C
ENDCHAR
STARTCHAR wgrave
ENCODING 7809
SWIDTH 520 0
DWIDTH 8 0
BBX 7 10 0 0
BITMAP
20
18
00
92
92
B2
6C
6C
6C
6C
ENDCHAR
STARTCHAR Wacute
ENCODING 7810
SWIDTH 520 0
DWIDTH 8 0
BBX 7 13 0 0
BITMAP
08
30
00
82
82
82
92
92
F4
6C
6C
6C
6C
ENDCHAR
STARTCHAR wacute
ENCODING 7811
SWIDTH 520 0
DWIDTH 8 0
BBX 7 10 0 0
BITMAP
08
30
00
92
92
B2
6C
6C
6C
6C
ENDCHAR
STARTCHAR Wdieresis
ENCODING 7812
SWIDTH 520 0
DWIDTH 8 0
BBX 7 13 0 0
BITMAP
68
00
00
82
82
82
92
92
F4
6C
6C
6C
6C
ENDCHAR
STARTCHAR wdieresis
ENCODING 7813
SWIDTH 520 0
DWIDTH 8 0
BBX 7 10 0 0
BITMAP
68
00
00
92
92
B2
6C
6C
6C
6C
ENDCHAR
STARTCHAR Ygrave
ENCODING 7922
SWIDTH 520 0
DWIDTH 8 0
BBX 7 13 0 0
BITMAP
20
18
00
EE
44
6C
28
28
10
10
10
10
7C
ENDCHAR
STARTCHAR ygrave
ENCODING 7923
SWIDTH 520 0
DWIDTH 8 0
BBX 7 13 0 -3
BITMAP
20
18
00
82
C6
44
44
28
28
10
10
30
E0
ENDCHAR
STARTCHAR endash
ENCODING 8211
SWIDTH 520 0
DWIDTH 8 0
BBX 7 1 0 3
BITMAP
FE
ENDCHAR
STARTCHAR emdash
ENCODING 8212
SWIDTH 520 0
DWIDTH 8 0
BBX 9 1 -1 3
BITMAP
FF80
ENDCHAR
STARTCHAR afii00208
ENCODING 8213
SWIDTH 520 0
DWIDTH 8 0
BBX 7 1 0 3
BITMAP
FE
ENDCHAR
STARTCHAR quoteleft
ENCODING 8216
SWIDTH 520 0
DWIDTH 8 0
BBX 3 4 3 6
BITMAP
60
80
80
E0
ENDCHAR
STARTCHAR quoteright
ENCODING 8217
SWIDTH 520 0
DWIDTH 8 0
BBX 3 4 1 6
BITMAP
E0
20
20
C0
ENDCHAR
STARTCHAR quotesinglbase
ENCODING 8218
SWIDTH 520 0
DWIDTH 9 0
BBX 3 4 4 -3
BITMAP
E0
20
20
C0
ENDCHAR
STARTCHAR quotedblleft
ENCODING 8220
SWIDTH 520 0
DWIDTH 8 0
BBX 8 4 0 6
BITMAP
63
84
84
E7
ENDCHAR
STARTCHAR quotedblright
ENCODING 8221
SWIDTH 520 0
DWIDTH 9 0
BBX 7 4 0 6
BITMAP
EE
22
22
CC
ENDCHAR
STARTCHAR quotedblbase
ENCODING 8222
SWIDTH 520 0
DWIDTH 9 0
BBX 7 4 0 -3
BITMAP
EE
26
26
CC
ENDCHAR
STARTCHAR dagger
ENCODING 8224
SWIDTH 520 0
DWIDTH 8 0
BBX 5 7 1 3
BITMAP
20
20
F8
20
20
20
20
ENDCHAR
STARTCHAR daggerdbl
ENCODING 8225
SWIDTH 520 0
DWIDTH 8 0
BBX 5 9 1 1
BITMAP
20
20
F8
20
20
20
F8
20
20
ENDCHAR
STARTCHAR bullet
ENCODING 8226
SWIDTH 520 0
DWIDTH 8 0
BBX 6 6 1 1
BITMAP
38
7C
FC
FC
7C
38
ENDCHAR
STARTCHAR ellipsis
ENCODING 8230
SWIDTH 520 0
DWIDTH 8 0
BBX 7 1 0 0
BITMAP
92
ENDCHAR
STARTCHAR perthousand
ENCODING 8240
SWIDTH 520 0
DWIDTH 9 0
BBX 8 10 0 0
BITMAP
E8
B0
B0
F0
20
20
7B
6D
AD
BB
ENDCHAR
STARTCHAR guilsinglleft
ENCODING 8249
SWIDTH 520 0
DWIDTH 8 0
BBX 4 5 1 1
BITMAP
20
70
C0
60
30
ENDCHAR
STARTCHAR guilsinglright
ENCODING 8250
SWIDTH 520 0
DWIDTH 8 0
BBX 3 5 2 1
BITMAP
40
C0
20
40
C0
ENDCHAR
STARTCHAR fraction
ENCODING 8260
SWIDTH 520 0
DWIDTH 8 0
BBX 7 10 0 0
BITMAP
02
04
04
08
10
10
20
40
40
80
ENDCHAR
STARTCHAR Euro
ENCODING 8364
SWIDTH 520 0
DWIDTH 8 0
BBX 7 10 0 0
BITMAP
1C
26
22
40
F0
40
F0
42
26
1C
ENDCHAR
STARTCHAR afii61352
ENCODING 8470
SWIDTH 520 0
DWIDTH 9 0
BBX 8 10 0 0
BITMAP
D0
D0
D0
D7
F9
B9
B7
B0
B0
9F
ENDCHAR
STARTCHAR trademark
ENCODING 8482
SWIDTH 520 0
DWIDTH 8 0
BBX 8 4 0 6
BITMAP
E9
4F
4F
4D
ENDCHAR
STARTCHAR Omega
ENCODING 8486
SWIDTH 520 0
DWIDTH 8 0
BBX 7 10 0 0
BITMAP
38
44
82
82
82
82
82
44
2C
EE
ENDCHAR
STARTCHAR partialdiff
ENCODING 8706
SWIDTH 520 0
DWIDTH 8 0
BBX 7 10 0 0
BITMAP
20
18
04
04
3A
42
82
82
84
78
ENDCHAR
STARTCHAR Delta
ENCODING 8710
SWIDTH 520 0
DWIDTH 8 0
BBX 7 10 0 0
BITMAP
10
28
28
28
44
44
44
82
82
FE
ENDCHAR
STARTCHAR product
ENCODING 8719
SWIDTH 520 0
DWIDTH 8 0
BBX 6 10 0 0
BITMAP
FC
48
48
48
48
48
48
48
48
48
ENDCHAR
STARTCHAR summation
ENCODING 8721
SWIDTH 520 0
DWIDTH 9 0
BBX 6 10 1 0
BITMAP
FC
84
44
40
20
20
40
44
84
FC
ENDCHAR
STARTCHAR minus
ENCODING 8722
SWIDTH 520 0
DWIDTH 8 0
BBX 7 1 0 3
BITMAP
FE
ENDCHAR
STARTCHAR radical
ENCODING 8730
SWIDTH 520 0
DWIDTH 8 0
BBX 7 8 0 0
BITMAP
0E
08
10
90
50
60
60
20
ENDCHAR
STARTCHAR infinity
ENCODING 8734
SWIDTH 520 0
DWIDTH 8 0
BBX 7 4 0 1
BITMAP
6E
92
92
6E
ENDCHAR
STARTCHAR integral
ENCODING 8747
SWIDTH 520 0
DWIDTH 8 0
BBX 7 16 0 -3
BITMAP
0E
10
10
10
10
10
10
10
10
10
10
10
10
10
10
E0
ENDCHAR
STARTCHAR approxequal
ENCODING 8776
SWIDTH 520 0
DWIDTH 8 0
BBX 7 5 0 1
BITMAP
62
9C
00
72
9C
ENDCHAR
STARTCHAR notequal
ENCODING 8800
SWIDTH 520 0
DWIDTH 8 0
BBX 7 7 0 0
BITMAP
0C
FE
10
10
20
FE
60
ENDCHAR
STARTCHAR lessequal
ENCODING 8804
SWIDTH 520 0
DWIDTH 8 0
BBX 6 8 1 -1
BITMAP
08
10
20
40
C0
20
10
FC
ENDCHAR
STARTCHAR greaterequal
ENCODING 8805
SWIDTH 520 0
DWIDTH 8 0
BBX 6 8 1 -1
BITMAP
20
70
18
0C
08
10
20
FC
ENDCHAR
STARTCHAR uni2303
ENCODING 8963
SWIDTH 520 0
DWIDTH 8 0
BBX 7 4 0 0
BITMAP
10
28
44
82
ENDCHAR
STARTCHAR uni2318
ENCODING 8984
SWIDTH 520 0
DWIDTH 9 0
BBX 8 8 0 0
BITMAP
E7
A5
FF
24
24
FF
A5
E7
ENDCHAR
STARTCHAR uni2324
ENCODING 8996
SWIDTH 520 0
DWIDTH 8 0
BBX 7 5 0 0
BITMAP
C6
10
28
44
82
ENDCHAR
STARTCHAR optionkey
ENCODING 8997
SWIDTH 520 0
DWIDTH 8 0
BBX 8 5 0 0
BITMAP
E3
10
08
0C
07
ENDCHAR
STARTCHAR erasetotheright
ENCODING 8998
SWIDTH 520 0
DWIDTH 8 0
BBX 8 10 0 0
BITMAP
E0
90
88
84
AA
93
AC
88
90
E0
ENDCHAR
STARTCHAR uni237d
ENCODING 9085
SWIDTH 520 0
DWIDTH 8 0
BBX 8 2 0 0
BITMAP
E7
3C
ENDCHAR
STARTCHAR uni2388
ENCODING 9096
SWIDTH 520 0
DWIDTH 8 0
BBX 8 7 1 0
BITMAP
E6
C2
A1
11
41
22
1C
ENDCHAR
STARTCHAR uni23ce
ENCODING 9166
SWIDTH 520 0
DWIDTH 8 0
BBX 9 7 -1 0
BITMAP
0780
0080
2080
4100
FE00
4000
2000
ENDCHAR
STARTCHAR uni2423
ENCODING 9251
SWIDTH 520 0
DWIDTH 8 0
BBX 5 2 1 0
BITMAP
88
F8
ENDCHAR
STARTCHAR SF100000
ENCODING 9472
SWIDTH 520 0
DWIDTH 8 0
BBX 8 1 0 4
BITMAP
FF
ENDCHAR
STARTCHAR SF110000
ENCODING 9474
SWIDTH 520 0
DWIDTH 8 0
BBX 1 15 3 -3
BITMAP
80
80
80
80
80
80
80
80
80
80
80
80
80
80
80
ENDCHAR
STARTCHAR SF010000
ENCODING 9484
SWIDTH 520 0
DWIDTH 8 0
BBX 5 8 3 -3
BITMAP
F8
80
80
80
80
80
80
80
ENDCHAR
STARTCHAR SF030000
ENCODING 9488
SWIDTH 520 0
DWIDTH 8 0
BBX 4 8 0 -3
BITMAP
F0
10
10
10
10
10
10
10
ENDCHAR
STARTCHAR SF020000
ENCODING 9492
SWIDTH 520 0
DWIDTH 8 0
BBX 5 8 3 4
BITMAP
80
80
80
80
80
80
80
F8
ENDCHAR
STARTCHAR SF040000
ENCODING 9496
SWIDTH 520 0
DWIDTH 8 0
BBX 4 8 0 4
BITMAP
10
10
10
10
10
10
10
F0
ENDCHAR
STARTCHAR SF080000
ENCODING 9500
SWIDTH 520 0
DWIDTH 8 0
BBX 5 15 3 -3
BITMAP
80
80
80
80
80
80
80
F8
80
80
80
80
80
80
80
ENDCHAR
STARTCHAR SF090000
ENCODING 9508
SWIDTH 520 0
DWIDTH 8 0
BBX 4 15 0 -3
BITMAP
10
10
10
10
10
10
10
F0
10
10
10
10
10
10
10
ENDCHAR
STARTCHAR SF060000
ENCODING 9516
SWIDTH 520 0
DWIDTH 8 0
BBX 8 8 0 -3
BITMAP
FF
10
10
10
10
10
10
10
ENDCHAR
STARTCHAR SF070000
ENCODING 9524
SWIDTH 520 0
DWIDTH 8 0
BBX 8 8 0 4
BITMAP
10
10
10
10
10
10
10
FF
ENDCHAR
STARTCHAR SF050000
ENCODING 9532
SWIDTH 520 0
DWIDTH 8 0
BBX 8 15 0 -3
BITMAP
10
10
10
10
10
10
10
FF
10
10
10
10
10
10
10
ENDCHAR
STARTCHAR SF430000
ENCODING 9552
SWIDTH 520 0
DWIDTH 8 0
BBX 8 4 0 3
BITMAP
FF
00
00
FF
ENDCHAR
STARTCHAR SF240000
ENCODING 9553
SWIDTH 520 0
DWIDTH 8 0
BBX 3 15 2 -3
BITMAP
A0
A0
A0
A0
A0
A0
A0
A0
A0
A0
A0
A0
A0
A0
A0
ENDCHAR
STARTCHAR SF510000
ENCODING 9554
SWIDTH 520 0
DWIDTH 9 0
BBX 6 10 3 -3
BITMAP
1C
10
10
FC
80
80
80
80
80
80
ENDCHAR
STARTCHAR SF520000
ENCODING 9555
SWIDTH 520 0
DWIDTH 8 0
BBX 6 8 2 -3
BITMAP
3C
20
E0
A0
A0
A0
A0
A0
ENDCHAR
STARTCHAR SF390000
ENCODING 9556
SWIDTH 520 0
DWIDTH 8 0
BBX 7 10 2 -3
BITMAP
FE
80
80
BC
A0
A0
A0
A0
A0
A0
ENDCHAR
STARTCHAR SF220000
ENCODING 9557
SWIDTH 520 0
DWIDTH 8 0
BBX 4 10 0 -3
BITMAP
E0
20
20
F0
10
10
10
10
10
10
ENDCHAR
STARTCHAR SF210000
ENCODING 9558
SWIDTH 520 0
DWIDTH 8 0
BBX 5 8 0 -3
BITMAP
E0
20
38
28
28
28
28
28
ENDCHAR
STARTCHAR SF250000
ENCODING 9559
SWIDTH 520 0
DWIDTH 8 0
BBX 5 10 0 -3
BITMAP
F8
08
08
E8
28
28
28
28
28
28
ENDCHAR
STARTCHAR SF500000
ENCODING 9560
SWIDTH 520 0
DWIDTH 9 0
BBX 6 9 3 3
BITMAP
80
80
80
80
80
FC
10
10
1C
ENDCHAR
STARTCHAR SF490000
ENCODING 9561
SWIDTH 520 0
DWIDTH 8 0
BBX 6 8 2 4
BITMAP
A0
A0
A0
A0
E0
20
20
3C
ENDCHAR
STARTCHAR SF380000
ENCODING 9562
SWIDTH 520 0
DWIDTH 8 0
BBX 7 9 2 3
BITMAP
A0
A0
A0
A0
A0
BC
80
80
FE
ENDCHAR
STARTCHAR SF280000
ENCODING 9563
SWIDTH 520 0
DWIDTH 8 0
BBX 4 9 0 3
BITMAP
10
10
10
10
10
F0
80
80
80
ENDCHAR
STARTCHAR SF270000
ENCODING 9564
SWIDTH 520 0
DWIDTH 8 0
BBX 5 8 0 4
BITMAP
28
28
28
28
38
20
20
E0
ENDCHAR
STARTCHAR SF260000
ENCODING 9565
SWIDTH 520 0
DWIDTH 8 0
BBX 5 9 0 3
BITMAP
28
28
28
28
28
E8
08
08
F8
ENDCHAR
STARTCHAR SF360000
ENCODING 9566
SWIDTH 520 0
DWIDTH 8 0
BBX 5 15 3 -3
BITMAP
80
80
80
80
80
F8
00
00
F8
80
80
80
80
80
80
ENDCHAR
STARTCHAR SF370000
ENCODING 9567
SWIDTH 520 0
DWIDTH 8 0
BBX 6 15 2 -3
BITMAP
A0
A0
A0
A0
A0
A0
A0
BC
A0
A0
A0
A0
A0
A0
A0
ENDCHAR
STARTCHAR SF420000
ENCODING 9568
SWIDTH 520 0
DWIDTH 8 0
BBX 6 15 2 -3
BITMAP
A0
A0
A0
A0
A0
BC
80
80
BC
A0
A0
A0
A0
A0
A0
ENDCHAR
STARTCHAR SF190000
ENCODING 9569
SWIDTH 520 0
DWIDTH 8 0
BBX 4 15 0 -3
BITMAP
10
10
10
10
10
F0
00
00
F0
10
10
10
10
10
10
ENDCHAR
STARTCHAR SF200000
ENCODING 9570
SWIDTH 520 0
DWIDTH 8 0
BBX 5 15 0 -3
BITMAP
28
28
28
28
28
28
28
E8
28
28
28
28
28
28
28
ENDCHAR
STARTCHAR SF230000
ENCODING 9571
SWIDTH 520 0
DWIDTH 8 0
BBX 5 15 0 -3
BITMAP
28
28
28
28
28
E8
08
08
E8
28
28
28
28
28
28
ENDCHAR
STARTCHAR SF470000
ENCODING 9572
SWIDTH 520 0
DWIDTH 8 0
BBX 8 10 0 -3
BITMAP
FF
00
00
FF
10
10
10
10
10
10
ENDCHAR
STARTCHAR SF480000
ENCODING 9573
SWIDTH 520 0
DWIDTH 8 0
BBX 8 8 0 -3
BITMAP
EF
28
28
28
28
28
28
28
ENDCHAR
STARTCHAR SF410000
ENCODING 9574
SWIDTH 520 0
DWIDTH 8 0
BBX 8 10 0 -3
BITMAP
FF
00
00
EF
28
28
28
28
28
28
ENDCHAR
STARTCHAR SF450000
ENCODING 9575
SWIDTH 520 0
DWIDTH 8 0
BBX 8 9 0 3
BITMAP
10
10
10
10
10
FF
00
00
FF
ENDCHAR
STARTCHAR SF460000
ENCODING 9576
SWIDTH 520 0
DWIDTH 8 0
BBX 8 8 0 4
BITMAP
28
28
28
28
28
28
28
EF
ENDCHAR
STARTCHAR SF400000
ENCODING 9577
SWIDTH 520 0
DWIDTH 8 0
BBX 8 9 0 3
BITMAP
28
28
28
28
28
EF
00
00
FF
ENDCHAR
STARTCHAR SF540000
ENCODING 9578
SWIDTH 520 0
DWIDTH 8 0
BBX 8 15 0 -3
BITMAP
10
10
10
10
10
FF
00
00
FF
10
10
10
10
10
10
ENDCHAR
STARTCHAR SF530000
ENCODING 9579
SWIDTH 520 0
DWIDTH 8 0
BBX 8 15 0 -3
BITMAP
28
28
28
28
28
28
28
EF
28
28
28
28
28
28
28
ENDCHAR
STARTCHAR SF440000
ENCODING 9580
SWIDTH 520 0
DWIDTH 8 0
BBX 8 15 0 -3
BITMAP
28
28
28
28
28
EF
00
00
EF
28
28
28
28
28
28
ENDCHAR
STARTCHAR blackdiamond
ENCODING 9670
SWIDTH 520 0
DWIDTH 8 0
BBX 7 7 0 0
BITMAP
10
38
7C
FE
7C
38
10
ENDCHAR
STARTCHAR lozenge
ENCODING 9674
SWIDTH 520 0
DWIDTH 8 0
BBX 7 7 0 0
BITMAP
10
28
44
82
44
28
10
ENDCHAR
STARTCHAR checkmark
ENCODING 10003
SWIDTH 520 0
DWIDTH 8 0
BBX 8 6 0 0
BITMAP
01
02
84
48
30
20
ENDCHAR
STARTCHAR shift
ENCODING 57344
SWIDTH 520 0
DWIDTH 8 0
BBX 7 7 0 0
BITMAP
10
28
28
44
EE
28
38
ENDCHAR
STARTCHAR shiftlock
ENCODING 57345
SWIDTH 520 0
DWIDTH 8 0
BBX 7 7 0 0
BITMAP
10
38
4C
CE
38
38
38
ENDCHAR
STARTCHAR verticaltab
ENCODING 57346
SWIDTH 520 0
DWIDTH 8 0
BBX 8 7 0 0
BITMAP
E3
01
05
09
9F
08
04
ENDCHAR
STARTCHAR copy
ENCODING 57347
SWIDTH 520 0
DWIDTH 8 0
BBX 8 10 0 0
BITMAP
F8
8C
8A
8F
81
91
B9
91
81
FF
ENDCHAR
STARTCHAR back
ENCODING 57348
SWIDTH 520 0
DWIDTH 8 0
BBX 8 7 0 0
BITMAP
82
84
88
9F
88
84
82
ENDCHAR
STARTCHAR endtab
ENCODING 57349
SWIDTH 520 0
DWIDTH 8 0
BBX 9 7 0 0
BITMAP
F000
8000
8200
4100
3F80
0100
0200
ENDCHAR
STARTCHAR insert
ENCODING 57350
SWIDTH 520 0
DWIDTH 8 0
BBX 8 7 0 0
BITMAP
C3
80
A0
90
F9
10
20
ENDCHAR
STARTCHAR tab
ENCODING 57351
SWIDTH 520 0
DWIDTH 8 0
BBX 8 7 0 0
BITMAP
41
31
09
FD
09
31
41
ENDCHAR
STARTCHAR uniE0B0
ENCODING 57520
SWIDTH 520 0
DWIDTH 8 0
BBX 8 17 0 -4
BITMAP
80
80
C0
E0
F8
FC
FE
FF
FF
FE
FC
F8
F0
E0
C0
80
80
ENDCHAR
STARTCHAR uniE0B2
ENCODING 57522
SWIDTH 520 0
DWIDTH 8 0
BBX 9 17 0 -4
BITMAP
0080
0180
0380
0F80
1F80
3F80
7F80
FF80
FF80
7F80
3F80
1F80
0F80
0780
0380
0180
0080
ENDCHAR
STARTCHAR uniE0B8
ENCODING 57528
SWIDTH 520 0
DWIDTH 8 0
BBX 8 17 0 -4
BITMAP
80
80
80
C0
C0
E0
E0
F0
F0
F8
F8
FC
FC
FE
FE
FF
FF
ENDCHAR
STARTCHAR uniE0BA
ENCODING 57530
SWIDTH 520 0
DWIDTH 8 0
BBX 9 17 0 -4
BITMAP
0080
0180
0180
0380
0380
0780
0780
0F80
0F80
1F80
1F80
3F80
3F80
7F80
7F80
FF80
FF80
ENDCHAR
STARTCHAR uniE0BC
ENCODING 57532
SWIDTH 520 0
DWIDTH 8 0
BBX 8 17 0 -4
BITMAP
FF
FF
FE
FE
FC
FC
F8
F8
F0
F0
E0
E0
C0
C0
80
80
80
ENDCHAR
STARTCHAR uniE0BE
ENCODING 57534
SWIDTH 520 0
DWIDTH 8 0
BBX 9 17 0 -4
BITMAP
FF80
FF80
7F80
7F80
3F80
3F80
1F80
1F80
0F80
0F80
0780
0780
0380
0380
0180
0180
0080
ENDCHAR
STARTCHAR commaaccent
ENCODING 63171
SWIDTH 520 0
DWIDTH 8 0
BBX 3 2 2 -3
BITMAP
60
C0
ENDCHAR
STARTCHAR apple
ENCODING 63743
SWIDTH 520 0
DWIDTH 8 0
BBX 8 10 0 0
BITMAP
04
0C
26
FF
FE
FE
FE
FF
7F
3E
ENDCHAR
STARTCHAR appleopen
ENCODING 63744
SWIDTH 520 0
DWIDTH 8 0
BBX 8 10 0 0
BITMAP
04
0C
7F
81
82
82
82
81
41
3E
ENDCHAR
STARTCHAR fi
ENCODING 64257
SWIDTH 520 0
DWIDTH 8 0
BBX 8 10 0 0
BITMAP
1C
20
20
FC
24
24
24
24
24
FF
ENDCHAR
STARTCHAR fl
ENCODING 64258
SWIDTH 520 0
DWIDTH 8 0
BBX 8 10 0 0
BITMAP
1C
24
24
FC
24
24
24
24
24
FF
ENDCHAR
STARTCHAR .notdef
ENCODING -1
SWIDTH 520 0
DWIDTH 8 0
BBX 6 10 0 0
BITMAP
FC
84
84
84
84
84
84
84
84
FC
ENDCHAR
ENDFONT
